/* XPM */
static char *result[] = {
/* columns rows colors chars-per-pixel */
"64 64 178 2 ",
"   c #070707",
".  c #09090A",
"X  c #1D0D11",
"o  c #151418",
"O  c #181819",
"+  c #302711",
"@  c #181723",
"#  c #1E1C28",
"$  c #221F28",
"%  c #1F2023",
"&  c #24222D",
"*  c #29292D",
"=  c #2A2734",
"-  c #2C2B34",
";  c #322F3C",
":  c #2F3035",
">  c #303136",
",  c #34343B",
"<  c #36383C",
"1  c #423B39",
"2  c #4F443D",
"3  c #5C4C3E",
"4  c #7E6524",
"5  c #393642",
"6  c #3B3844",
"7  c #3C3B44",
"8  c #403E49",
"9  c #3E5B64",
"0  c #414346",
"q  c #4E4640",
"w  c #44454C",
"e  c #474A4B",
"r  c #5A4C42",
"t  c #5E534C",
"y  c #494552",
"u  c #4B4C54",
"i  c #4F5256",
"p  c #505254",
"a  c #53545A",
"s  c #5C5D5F",
"d  c #695647",
"f  c #63554C",
"g  c #665A4E",
"h  c #6C5A4C",
"j  c #635950",
"k  c #7C695A",
"l  c #7C735B",
"z  c #5B5864",
"x  c #5B5C64",
"c  c #5E6266",
"v  c #5F6268",
"b  c #466771",
"n  c #636262",
"m  c #62656C",
"M  c #666A6F",
"N  c #686A6A",
"B  c #6B6D74",
"V  c #706C77",
"C  c #6E7176",
"Z  c #6D7479",
"A  c #76767B",
"S  c #74787C",
"D  c #856D5B",
"F  c #887056",
"G  c #8C735D",
"H  c #AA7F5D",
"J  c #837264",
"K  c #8C7662",
"L  c #8F7866",
"P  c #917661",
"I  c #937A64",
"U  c #9C7D66",
"Y  c #937C69",
"T  c #A67F62",
"R  c #A87F61",
"E  c #AB825E",
"W  c #9D836C",
"Q  c #81807F",
"!  c #998373",
"~  c #A58165",
"^  c #AC8463",
"/  c #A4836B",
"(  c #AD8C6D",
")  c #B58C65",
"_  c #B38D6C",
"`  c #B98F68",
"'  c #B6916E",
"]  c #BC936E",
"[  c #A48671",
"{  c #A58A73",
"}  c #AC8D74",
"|  c #A78E7A",
" . c #AB8E7A",
".. c #B28F73",
"X. c #B58F77",
"o. c #AE9175",
"O. c #A7907D",
"+. c #AE927B",
"@. c #B49274",
"#. c #BB9574",
"$. c #BD9976",
"%. c #B4957A",
"&. c #BA967A",
"*. c #B6997C",
"=. c #BC9A7C",
"-. c #BFA17E",
";. c #C2956E",
":. c #C6996C",
">. c #C29673",
",. c #C39B75",
"<. c #C99D75",
"1. c #C0977A",
"2. c #C39D7C",
"3. c #C99E7C",
"4. c #C7A077",
"5. c #CBA077",
"6. c #C5A17E",
"7. c #CAA27C",
"8. c #787D81",
"9. c #7D8286",
"0. c #7F8489",
"q. c #868585",
"w. c #888786",
"e. c #86878D",
"r. c #858A8E",
"t. c #878C90",
"y. c #888E91",
"u. c #8E9396",
"i. c #8F9598",
"p. c #909699",
"a. c #969B9E",
"s. c #AE9480",
"d. c #B49781",
"f. c #B59A82",
"g. c #BC9D82",
"h. c #B79F89",
"j. c #BB9E8A",
"k. c #B7A087",
"l. c #BEA184",
"z. c #B6A18E",
"x. c #BDA28C",
"c. c #BCA492",
"v. c #BDAB9D",
"b. c #999EA1",
"n. c #9CA1A3",
"m. c #99ABB8",
"M. c #A3A7A9",
"N. c #A5AAAB",
"B. c #B5B8B9",
"V. c #C29E82",
"C. c #C99F81",
"Z. c #C19F88",
"A. c #C5A284",
"S. c #C9A484",
"D. c #C4A887",
"F. c #CBA986",
"G. c #C4A58A",
"H. c #C9A68A",
"J. c #C6A98D",
"K. c #CBAA8C",
"L. c #D0A685",
"P. c #D1AC8B",
"I. c #D4B18F",
"U. c #C3A691",
"Y. c #C5AA93",
"T. c #CBAC92",
"R. c #C6AC99",
"E. c #C9AE99",
"W. c #D0AF93",
"Q. c #CDB195",
"!. c #CCB29A",
"~. c #CFB99E",
"^. c #D3B392",
"/. c #D3B49A",
"(. c #D1B89B",
"). c #CFBBA3",
"_. c #D2B9A4",
"`. c #D4C1A8",
/* pixels */
"*.d.&.f.%.#.%.%.=.=.g.&.*.f.&.&.d.V.V.V.V.2.>.&.&.V.V.V.d.f.g.d.f.d.d.f.d.d.X.o.{ X.( o.} %.%.&.%.@.*.%.%.%.o.*.%.%.%.&.*.&.&.&.",
"V.3.3.V.A.V.3.2.A.V.C.C.V.S.V.V.V.3.1.>.>.` ;.>.&.&.A.V.V.=.g.V.G.H.S.6.2.1.#.#.Z.g.A.A.A.A.A.6.A.S.A.6.A.2.#.,.2.2.2.2.,.<.2.1.",
"2.A.S.2.A.A.S.V.S.C.H.Z.H.S.V.C.G.3.1.1.&.1.1.>.d.T V.G.V.V.2.A.H.K.Y.H.H.S.3.1.*.j.K.F.L.F.S.S.S.F.7.7.A.6.7.7.7.2.<.2.6.S.6.6.",
"V.G.V.g.V.V.K.T.W.K.T.P.H.F.A.H.H.H.V.G.Z.T.H.U.U. .&.A.A.A.H.W.H.F.W.T./.E.T.K.G.G.K.A.S.S.S.S.S.A.A.3.2.6.A.7.7.2.2.A.A.K.H.A.",
"T.T.Y.H.d. .| j.U.Y.Y.J.Y.T.T.T.&.#.` g.Z.G.Y.x.j.d.f.K.G.K.H.P.A.A.G.A.V.V.A.H.K.g.V.A.P.P.F.A.C.3.C.L.3.S.A.S.H.H.H.V.6.F.K.K.",
"H.K.Y.G.%.{ R >.1.&.2.V.3.A.A.3.3.F.K.G.G.Y.G.G.Z.G.K.K.P.K.L.L.5.3.G.K.V.1.2.3.A.&.H.H.S.3.F.S.3.S.S.F.V.S.7.A.S.S.C.3.6.A.V.V.",
"G.S.G.G.*.T X.V.G.#.1.P.P.L.P.7.>.3.S.S.V.G.A.G.V.V.A.A.S.S.L.7.S.F.K.K.A.1.6.S.V.*.K.H.S.C.L.7.S.S.3.&.3.P.P.P.P.P.W.P.K.K.S.A.",
"Z.Z.A.=.#.( X.U.G.2.1.V.3.3.2.3.1.1.3.1.1.V.2.&.=.1.2.3.3.1.3.3.>.2.1.&.#.` #.=.1.=.2.1.=.3.=.=.2.1.$.&.V.V.S.S.A.3.C.H.H.H.G.V.",
"/ ~ ~ / / [ [ [ |  .%.&.X.X.....X.X.X.X.} @.X...} ( ..@._ _ @.#.#.....} ( ( @...@.( ^ ^ ^ ) ( H E ^ ^ ^ ^ ^ E ^ R R R R T T ~ / ",
"G.G.G.G.G.Y.G.G.G.G.K.H.G.H.A.C.A.Z.A.A.A.A.S.A.S.S.A.S.F.L.H.S.S.S.A.%...A.A.A.3.3.1.1.,.7.1.3.3.2.3.3.3.,.3.A.V.2.A.g.j.G.U.x.",
"j.l.G.A.G.G.G.G.G.G.G.G.H.H.G.V.H.C.C.C.2.2.2.2.A.2.A.A.C.V.V.3.V.2.1.( ..&.=.V.A.=.6.A.A.V.A.G.G.A.G.H.G.G.G.Y.K.G.U.Y.E.Y.Y.x.",
"G.x.#.1.&.X.%.g.Z.g.V.V.1.1.V.C.S.Y.K.T.Y.K.K.G.H.G.G.J.G.K.Y.K.H.g.g.D.G.G.Y.G.T.J.J.G.G.A.A.C.G.A.C.3.3.1.2.C.3.2.2.2.3.2.V.V.",
"G.x.f.3.>.' g.V.V.V.S.C.A.V.A.A.C.Y.Y.G.T.T.T.U.A.2.2.1.2.V.V.A.Y.H.G.J.Y.G.Y.T.E.E.Y.G.G.A.K.Y.J.S.T.T.T.U.Y.T.Y.Y.G.U.Y.G.x.G.",
"G.G.j.G.H.V.K.H.Y.T.T.E./.T.T.T.W.P.H.H.T.T.W.T.G.E.Y.G.H.Y.J.Y.G.G.G.A.A.H.Y.T.G.D.S.G.T.Y.K.Y.J.Y.T.Y.G.g.j.g.g.G.x.G.U.G.G.G.",
"U.G.x.x.T.W.K.Z.H.K.H.H.H.H.H.S.H.A.V.C.C.Z.Z.S.A.H.A.A.H.A.A.3.6.V.V.V.A.A.S.A.A.S.A.V.S.A.H.F.S.V.A.A.H.V.Z.C.A.C.V.G.H.H.G.T.",
"Z.g.g.g.U.U.G.H.G.H.H.H.H.H.H.H.H.H.S.H.Z.C.H.S.H.A.A.A.A.A.G.G.S.S.S.C.S.A.S.S.S.A.2.A.G.H.V.V.V.V.A.S.V.g.&.g.Z.g.g.V.V.V.Z.g.",
"%.f.d.d.d.d.%.d.*.*.%.%.%.@.@.&.%.%.&.%.X.} } o.X.} %.o.} } X.@.o.X.%.+.X.%.X.@.X.@.X.X.X.X...} X.....@.@.} } %.X.+. .@.%.+.%.%.",
"G.Z.V.H.H.H.G.H.G.G.H.H.H.S.H.H.H.H.H.G.A.V.A.A.C.A.A.3.A.3.V.V.A.G.G.A.A.A.A.S.A.V.A.A.A.C.V.V.A.A.A.3.1.2.A.S.G.A.G.A.G.V.G.Z.",
"j.U.d.g.Z.g.Z.Z.V.A.A.A.g.V.G.V.V.H.A.V.G.A.V.H.A.G.A.A.A.A.A.C.G.G.G.A.g.A.G.G.G.G.G.G.G.K.H.H.H.K.K.K.H.A.Z.G.V.g.j.g.j.g.j.Z.",
"j.Z.j.f.T.T.Y.Y.U.Y.R.Y.U.T.Y.K.G.T.H.A.V.V.G.G.Z.K.G.G.A.A.C.V.A.V.G.x.Y.G.G.G.A.g.Z.G.G.g.Z.Z.Z.H.G.U.Y.Y.R.R.Y.z.j.c.h.j.Z.j.",
"V.F.G.g.T.W.T.H.J.Y.T.Y.G.T.E.T.T.E.E.T.Y.Y.Y.Y.T.E.E.R.Y.Y.E.R.Y.R.U.x.z.Y.R.E.R.R.R.!.E.R.R.R.R.E.U.Y.E.!.E.T.U.G.U.x.Y.G.V.V.",
"3.S.Z.V.H.K.H.C.S.S.S.S.S.S.S.S.A.A.A.A.G.g.A.x.Y.K.K.Y.k.J t j t t k d.s.c.Y.R.Y.R.R.R.Y.T.T.T.T.T.K.H.H.K.K.G.G.A.A.G.C.V.A.A.",
"H.Y.G.H.S.C.C.A.A.7.7.A.6.3.C.V.V.A.S.V.C.V.g.V.A.A.A.*.1 x 9.p.t.8.i < %.U.G.G.G.Y.Y.G.K.H.C.L.L.P.K.S.S.H.H.S.G.H.K.G.S.S.L.K.",
"x.x.g.V.Z.g.V.2.2.=.g.V.g.=.g.g.=.=.g.g.2.=.*.=.g.=.*.r Z n.N.p.i.p.y.n r &.d.f.&.*.V.V.V.C.C.V.G.V.V.V.V.V.V.V.2.g.V.g.l.G.V.V.",
"| O.| | d.}  . . .%. . .[ [ [ [  .|  .h k } { | | | [ : p.M.B.p.i.i.i.8.> [  .} } }  . .X. . .}  .}  . . .[ / s.%.+.[ X. .| s.s.",
"v.c.v.).R.U.U.G.Y.!.T.&.d.j.j.j.U.j.G.f Q K G.V.g.V.&.0 p.p.p.p.p.p.i.0.0 g.V.A.G.G.H.H.G.H.H.Z.G.H.Y.U.j.| ! f.V.} j.!.Z.U.R.v.",
"U.j.U.E.T.U.Y.T.E.~.j.%.c.U.R._._.G.G.c.V n Y V.=.K.G.7 i.p.p.i.p.i.i.9.7 f.Y.K.S.A.A.1.V.A.G.H.G.H.K.V.d.V.U.j.G.&.U.T.G.G.j.c.",
"&.g.G.=.d.%.&.g.V.2.V.G.G.V.V.G.U.H.G.G.L q.n P V.&.f v Z a.b.i.p.b.u.B v j !.T.&.Y.V.g.T.V.T.g.T.2.Y.V.#.Y.T.G.c.!.T.Z.G.G.Z.Z.",
"g.V.2.Z.Z.G.G.V.g.V.A.A.A.G.G.H.H.H.V.V.V.I w.n P 3.d 0.M 9 b t.r.b 9 m e.h V.2.V.C.A.V.3.V.C.V.Z.A.V.V.C.K.G.T.T.V.V.Z.g.&.V.V.",
"3.1.2.S.T.K.S.H.H.V.S.S.S.G.G.K.G.Z.C.A.A.S.P q.n P 3.f i Z m.p.p.m.Z a t g.V.V.V.V.3.3.3.3.C.3.C.C.V.3.C.C.C.U.U.H.Z.H.V.3.C.1.",
"3.3.3.A.K.K.H.S.A.2.X.2.S.H.S.S.H.A.V.A.S.S.H.Y w.n I 1 w r.i.i.p.p.t.> &.H.H.S.S.S.S.C.V.S.S.C.C.3.3.C.3.C.V.H.C.Z.C.C.V.3.C.C.",
"..#.@.@.&.#.&.#.#.#._ @.#.@.@.X.X.@.@.....@.@.#.D w.s p b.a x v m x A e.3 #.#.=.1.#.>.>.#.#.1.1.>.1.#.#.>.X.#.*.&.&.#.#.X.#.#.#.",
"$.$.$.$.$.#.$.#.#.@.' @.' @.*.*.*.f.f.=.*.=.#.#.#.F q.c S r.B B C S b.n.< o.=.$.6.-.-.$.$.$.#.$.$.#.$.] -.#.#.#.=.=.$.2.=.$.#.#.",
"$.4.4.4.A.4.4.6.-.-.$.$.-.$.-.-.6.4.2.-.6.D.A.6.S.=.% Q n B e i.i.8.r.i.* #.7.7.7.F.7.5.7.6.6.7.7.7.5.5.5.5.F.K.D.6.6.7.7.6.<.4.",
",.] $.4.4.#.' ] ] #.#.$.#.-.-.@.l.=.-.-.-.l.D.-.4.$.e 0 l 4   e M - 9.y.d 4.$.4.4.4.6.D.D.6.6.4.S.^.7.6.4.6.l.Q.K.D.A.6.4.-.$.#.",
";.] ' ' ` ) #.$.-.$.-.l.-.-.-.' $.$.-.l.l.=.*.-.4.=.p i O + . < s 9.r.- < $.$.-.D.D.J.-.T.D.6.D.Q.(.F.7.6.6.D.J.D.K.K.@.-.6.#.' ",
"-.$.4.A.-.-.-.D.-.$.l.l.-.-.-.o.-.=.-.l.D.J.-.-.l.$.0 0 o . V M.p.m , = O l.J.T.~.`.Q.J.D.-.D.J.D.J.D.6.-.-.6.D.6.l.A.-.A.-.-.=.",
"4.-.A.4.-.4.6.-.6.A.-.-.-.-.-.-.-.*.*.=.l.l.-.-.=.*.: < z a v t., o 6 7 $ g.J.T.`.`.J.-.6.-.D.~.~.~.J.J.6.7.D.6.D.6.A.6.6.4.4.$.",
"H.G.F.D.D.D.J.J.T.Y.k.f.x.x.k.*.l.x.D.D.J.J.D.D.D.D.G 7 z y 6 O X % w - % l k.x.x.Y.Q.T.K.K.J.Q.Q.Q.Q.^.^.Q.P.J.6.6.6.D.S.S.D.D.",
"$.*.$.*.%.o.-.*.*.*.+.| [ W W { o.*.o.o.o.@.o.( ( ( ( s V y 6 z 5 = ; , = 2 { o.{ k.-.%.o.@.@.%.%.@.@.@.o.%.@.@.o.' @.@.' @.@.$.",
"*.*.g.=.l.f.l.h.h.f.f.f.f.*.*.=.k.k.k.k.f.f.f.f.f.f.+.0 e.v 5 6 8.V 8 = u 5 o.=.f.*.f.*.*.k.*.*.=.*.f.=.g.*.*.*.*.-.l.*.*.#.*.*.",
"6.l.6.6.A.S.A.=.=.4.6.A.-.-.=.2.6.-.6.6.S.-.-.-.6.6.g.& m V z = 6 7 = u x 7 q g.A.A.G.A.A.D.A.A.A.S.D.D.S.6.-.{ W l.S.A.A.A.6.6.",
"6.6.-.D.D.6.6.6.6.D.6.S.A.D.D.D.D.F.S.S.S.D.S.S.6.D.h c u w 5 # @ # 5 8 7 Z i l.K.T.K.K.T.K.K.P.Q.K.P.P.D.6.-.W W k.-.2.2.A.A.6.",
"S.A.D.F.F.S.K.K.^.Q.P.K.K.H.H.K.K.F.F.K.K.P.K.F.S.S.G i a N G &.g.f.s.Y t g K J.D.J.G.T.K.D.Q.Q.P.K.K.=.=.D.H.l.l.-.-.K.S.,.#.2.",
"A.A.D.S.S.F.^.P.2.A.Q.Q.K.J.T.K.Q.P.T.P.Q.P.D.D.A.6.6.' #.*.l.( g.x.@.l.D.J.D.K.J.J.G.D.l.D.J.T.T.T.D.' =.D.J.l.l.S.F.K.D.D.A.A.",
"D.-.S.D.D.7.6.-.%.G.G.S.A.A.A.l.D.D.6.D.S.S.S.6.4.-.=.6.6.6.-.F [ f.*.-.$.l.D.l.D.D.G.D.D.D.A.S.D.6.D.F.D.6.A.-.A.D.G.D.l.D.D.l.",
"S.A.S.S.F.7.7.K.K.H.D.H.D.7.-.6.4.A.6.S.S.6.S.6.4.=.$.4.4.6.6.k.=.=.=.$.*.6.A.A.F.S.S.S.A.6.6.7.6.7.6.7.S.6.6.,.7.6.D.F.S.S.S.D.",
"#.#.$.=.,.$.$.=.=.=.=.*.=.#.$.$.@.$.#.&.=.=.=.*.$.#.#.#.#.#.%.o.@.@.' ' ' #.#.$.&.=.$.=.#.%.#.#.#.#.' #.#.#.#.%.*.$.=.*.$.=.&.#.",
"=.*.=.6.F.S.1.2.1.2.=.=.G.A.g.f.@.%.g.g.g.g.g.*.*.=.k.=.#.#.-.#.' $.%._ ' $.#.=.$.#.@.%.&.&.#._ #.#.#.=.=.@.%.#.%.=.2.2.=.=.=.g.",
"S.7.5.7.5.5.5.7.7.5.4.7.7.2.6.2.4.,.=.,.,.=.4.$.&.=.=.,.,.<.,.,.,.=.l.g.$.<.6.<.<.,.,.<.6.4.3.4.7.6.S.6.S.S.S.S.7.7.S.7.S.6.S.7.",
"5.7.7.7.7.4.4.7.5.7.2.7.2.<.<.2.-.,.1.#.=.4.#.#.2.=.-.2.7.6.6.-.=.=.k.G.$.#.,.S.6.2.2.A.7.S.S.6.6.F.P.F.7.7.7.S.7.7.7.2.3.7.7.<.",
"S.L.7.3.3.4.3.<.3.2.1.6.1.2.A.6.$.S.6.A.2.=.S.-.A.6.] ` #.#.#.} ! +.D.D.S.6.$.-.D.A.A.D.F.D.D.K.D.T.K.6.2.S.H.F.F.6.2.6.A.7.6.7.",
"K.3.P.^.I.P.7.] ;.>.1.&.&.V.K.S.3.G.A.D.-.A.F.S.A.A.2.V.A.A.=.$.o.#.A.D.S.A.S.D.K.F.A.A.A.S.S.S.K.K.F.K.K.F.G.T.T.=.G.J.J.G.g.2.",
"j.X.F.I.P.P.F.F.F.H.K.J.F.K.K.F.F.D.A.V.6.F.H.H.A.D.F.D.A.A.A.6.6.-.A.A.6.D.G.K.K.K.G.A.A.A.6.6.D.S.A.A.G.H.S.D.A.A.A.K.H.K.Y.G.",
"T.%.A.P.P.K.K.P.H.L.K.K.H.H.H.A.A.A.G.G.S.S.D.G.K.H.H.H.H.H.A.D.G.H.K.Q.T.T.P.K.T.T.P.J.J.K.K.K.K.H.D.A.H.G.F.G.Y.K.K.K.P.W.K.Y.",
"l.g.f.%.#.#.%.&.=.%.@.@.&.&.&.*.%.%.*.%.@._ @.@.%.*.*.&.*.*.@.@.%.*.=.*.*.-.%.o.%.-.*.k.l.*.f.*.#.@.%.=.&.=.=.=.=.2.2.1.=.#.g.g.",
"3.3.3.:.:.<.,.>.7.2.>.` >.>.>.1.#.>.2.,.1.] #.' ' $.,.$.-.$.] #.#.-.2.#.$.,.=.#.#.*.' =.4.=.,.$.] 1.#.<.7.7.<.<.7.5.5.<.<.5.L.7.",
"5.<.>.>.>.1.>.3.3.;.>.3.3.>.>.>.>.>.>.:.;.#.#.} U @.#.1.<.4.,.,.:.,.7.5.5.4.7.4.,.;.,.] ,.,.,.<.4.1.<.1.1.,.3.S.S.7.C.7.5.5.3.<.",
"V.H.V.1.2.V.C.V.2.2.V.Z.V.C.S.3.3.V.C.1.&.=.=.&.=.V.A.2.3.2.3.7.7.6.6.A.6.S.A.@.-.=.4.S.2.#.1.2.1.6.V.=.3.=.&.V.A.2.1.;.1.C.H.A.",
"U.g.R.X.U.&.V.X.&.G.G.&.1.V.#.A.W.T.Z...K.%.=.H.F.#.&.T.A.g.Y.A.6.P.F.S.S.K.K.J.T.G.K.K.F.A.G.H.G.J.x.x.G.K.A.A.S.G.G.X.H._.G.' ",
"G.j.j.j.T.X.Z.X.X.1.V.V.1.C.T.T.W.H.T.Z.V.H.V.C.A.H.H.H.#.g.T.S.2.K././.A.G.Q.P.A.K.-.H.=.A.Q.T.G.%.D.g.T.Y.A.G.K.G.G.G.V.V.H.G.",
"G.G.x.G.T.E.K.T.Z.V.V.Z.V.C.H.C.L.H.C.H.V.V.S.S.F.S.C.C.S.S.2.2.S.S.6.6.S.D.H.D.S.S.=.H.=.#.H.Q.6.#.=.*.E.G.@.A.H.F.H.S.H.V.A.g.",
"Y.G.T.G.T.H.H.H.C.Z.C.H.W.Z.P.U.H.K.H.H.H.S.F.P.F.P.P.K.F.F.7.F.S.7.6.F.F.P.D.S.G.K.F.I.F.F.A.D.H.K.K.K.G.S.K.F.H.F.F.K.P.K.K.K.",
"*.o.X.%.X...&.V.1.V.1.d.V.&.V.V.&.3.X.#.#.1.#.$.@.1.3.>.$.,.@.=.$.] ) ' $.@.%.%.o.$.=.*.@.%.( ' @.} @.%.@.@.#.#.&._ ) @.$.&.%.&."
};
