/* XPM */
static char *result[] = {
/* columns rows colors chars-per-pixel */
"64 64 105 2 ",
"   c black",
".  c #322C26",
"X  c #534638",
"o  c #5D4D3E",
"O  c #62513F",
"+  c #584D43",
"@  c #5F5245",
"#  c #624F41",
"$  c #645343",
"%  c #64554B",
"&  c #63584D",
"*  c #7D6E60",
"=  c #876D55",
"-  c #8B725C",
";  c #AA7F5D",
":  c #977B63",
">  c #9C7D66",
",  c #A67F62",
"<  c #A87F61",
"1  c #AB825E",
"2  c #95816A",
"3  c #9D836C",
"4  c #958372",
"5  c #9C8374",
"6  c #A58165",
"7  c #AC8463",
"8  c #A4836B",
"9  c #AD8C6E",
"0  c #B28A65",
"q  c #B38D6C",
"w  c #B98F68",
"e  c #B6916E",
"r  c #BC936E",
"t  c #A48671",
"y  c #A58A74",
"u  c #AC8D73",
"i  c #A28F7D",
"p  c #AB8E7A",
"a  c #B28F73",
"s  c #B98E74",
"d  c #B08F7A",
"f  c #AE9275",
"g  c #A7907D",
"h  c #AE927B",
"j  c #B49274",
"k  c #BB9574",
"l  c #BD9976",
"z  c #B4957A",
"x  c #BA967A",
"c  c #B6997C",
"v  c #BC9A7C",
"b  c #BFA07D",
"n  c #C2956E",
"m  c #C6996C",
"M  c #C29673",
"N  c #C39B75",
"B  c #C99D75",
"V  c #C0977A",
"C  c #C39D7C",
"Z  c #C99E7C",
"A  c #C7A077",
"S  c #CBA077",
"D  c #C5A17E",
"F  c #CAA27C",
"G  c #AE9480",
"H  c #B59781",
"J  c #B69A82",
"K  c #BC9D82",
"L  c #B69E88",
"P  c #BB9E8A",
"I  c #B7A087",
"U  c #BEA184",
"Y  c #B6A18E",
"T  c #BDA28C",
"R  c #BCA492",
"E  c #BDAB9D",
"W  c #C29E82",
"Q  c #C99F81",
"!  c #C19F88",
"~  c #C5A284",
"^  c #C9A484",
"/  c #CBA986",
"(  c #C4A58A",
")  c #C9A68A",
"_  c #C6A98D",
"`  c #CBAA8C",
"'  c #D0A685",
"]  c #D1AC8B",
"[  c #D4B18F",
"{  c #C3A691",
"}  c #C5AA93",
"|  c #CBAC92",
" . c #C6AC99",
".. c #C9AE99",
"X. c #D0AF93",
"o. c #CDB194",
"O. c #C7B09A",
"+. c #CCB29B",
"@. c #CFB99E",
"#. c #D3B392",
"$. c #D3B49A",
"%. c #D1B89B",
"&. c #CFBBA3",
"*. c #D2B9A4",
"=. c #D4C2A8",
/* pixels */
"c H x J z k z x x v H x v v x x x P W W K C M x x W W W H H H H H H H H H H z f y u 9 f u z z x z j z z z z j z z z z c v x v x ",
"W Z C W ~ C D C Q ~ Q Q ~ ~ W W W Z N M M w n M x x ~ W W C W ~ ( ( ^ ~ C k M k ~ P ~ ~ ~ ~ ~ D ~ ^ ^ D W C k C D N C N N N C V ",
"C ~ ^ C ~ ~ ) ~ ) ) ) ! ) ) W W ( Z V V x V V V H > ! ~ W C C ^ ) ` ` ) ) ~ Z V x ( ) ` ' / ^ ^ ^ ^ F ^ ~ D D F F C C D C ^ D C ",
"W ( W W W W ) | | ` ` ] ) ^ ^ ) ) ( ~ ) ! | ) ) { u x ( W ( ) X.) ` o.| $...| _ ~ ( _ ~ ^ ^ ^ ^ ^ ~ ^ C D D D ^ F C C D ^ ` _ ^ ",
"| | | ( J p y P { { _ } } | | _ v k s K ! { { P ! H J | ( _ ] ) ^ C ) W W W ~ ) _ W W ~ ] ] / ^ Z Z Q ' Z ^ ^ ^ ) ~ ) C ~ ) ) _ ",
") _ } ( h y < M V x W W Z ^ Z ^ Z ^ ) ~ W { _ _ ! ( ` ] ] ' ^ ' F Q ) _ W N W C W x ) ) ^ Z / ^ F ^ ^ / W ~ C Q ^ ^ ^ Z C ^ C ^ ",
") ~ ( ( c 8 s Q ) k Z ) ] ] ] ^ M Z ) W W ) ~ ) W W ~ ~ ~ ^ ' ' ^ / ` _ ( C F ^ W c ] ` ^ Z / ^ ^ F Z x Z ] ] ] ] ] X.] ] ` ~ ~ ",
"! ! ~ V k 9 a { ( C x Z Z V Z N V N Z V Z W C x v C C V Z Z Z M M C V k k w k l V K V x v Z V l C C x c W Q / ^ ^ Q ^ ! ) ) ) ! ",
", 8 6 8 8 u t t y p z x x a a a a d d s a a a a u 9 a j s q k j k a a a 9 u f a j a 7 1 7 0 9 ; ; 7 7 7 7 7 7 7 < < 6 < 6 , 8 8 ",
"( ( ( ( ( { ( ( ) { ( ) ( ) W Q ) ! Q ~ ~ ~ ^ ~ ^ ^ ~ ^ / ) ' ^ ~ ^ ~ z j W D ~ C C C N N Z C C C Z W Z C N C Q W C W W P ( ( ( ",
"P T ( W T ( ( ( ( ( ( ( ) ( _ ! ) Q Q W C V C C ~ C ~ ~ C Z Q W W C V 9 u C W W ~ v W W ~ W W ( ) ~ ( ^ ( ( _ ` _ ( ( } ..| { R ",
"P ( x N x a z K P W W W V V Z Q ! ` | ` | | _ _ ( _ ( ( ( | _ _ ( U K ~ ( ( ( { | | _ ( ( ( W Z ) ~ Q Q B C V C Z C C C C C W K ",
"( ( J B n k K W W W ) Q ~ W W ( ) _ | ( ` ..| ) ~ C C V C W W ) | ( ( _ | ( { | | O.} ( ( ~ | | _ ^ | | | } } | } { { ( } ( ( ( ",
"( ( T T ) ! ) ) | | | ..$.| | | X.` ) ( ] X...| ( | { ( ( | { _ ( ( ~ ~ ( ( | ` _ ~ ( ) | _ ` | _ } } | ) K P P ~ ! ( ( ( { ! ( ",
"( ( T T | | ` ) ) ) ) ) ` ^ ) ~ ^ ) Q Q ! ! ) ! ~ ( ~ ~ ~ ~ Q C D ^ Z W W ^ ~ ~ ~ ^ ~ W ) ( ) / ~ ~ ~ ~ W W W ~ ( W W ( ( _ ( | ",
"P W J ! { | ! ! ( ) ) ) ) ` ) ^ ^ ) ) ^ ! Q ^ ~ ) ) ~ ~ ~ ) _ ~ ~ ~ ) W ~ ^ ^ ^ ~ ~ C ~ ) ~ W C Q C W ) ! K W x W P K W W W W ! ",
"z K H K x H d H z z H z z j k z z z x z a u a p a a z z u u a z u z z p z j d j a z a d a a a u a a a z j u u z d z h j z z z z ",
"( ! ! ! ) ( ( ) ( ( ) ) ) ^ ) ) ) ) ) ~ ~ ~ W ~ W ^ ~ C ~ C C W ~ ) ( ~ ~ ~ ^ ^ W Q ~ ~ ~ Q W W ~ ~ Q Z C W W ~ ) W ( W ( P ! ! ",
"P T L W W ! ! ! ~ ~ ~ ~ K ~ ( W W ) ~ W ( W ~ ( ~ ( ~ ~ ~ ~ ^ W ( ( ( ~ K W ~ _ ( ( ! ( _ ) ) ) ) _ | ` ) W W ( ~ P P W P K P ! ",
"P T P H ..| { } { {  .} ( | } _ ( | ) ( W ( ~ ( ( _ ( ( ~ Q Q ( ~ W T ( } ( ( ( ~ P ( ! ( W ! ! ( ( ( { } } ....{ Y P T Y P W P ",
"~ ~ ( K | X.` { _ _ | } _ | o.| | O...| } {  .{ 2   & & % } O.O.} } { R T R  .O. . . .O..... ...| .. .} ......| } ( { T { ( W W ",
"Z ^ W Q ) ` ' ~ ^ ^ ^ ^ ~ ^ ^ ( ~ ~ ^ ~ ~ ~ ( T % . & & .       . % $ + H R  . . .| O. . .} | | | | ( ) ) ` _ ( ( ~ ( ~ Q ~ D ^ ",
") } ( ) ) W Q ^ ^ ^ W ^ C D Q Q W ~ ~ W Q W v W $ & O.O.O.O.O.O.& & & &           . % ) ^ ) ' ^ ) ] ` ^ ~ ^ ) ) ^ ) ) ( ^ ^ ` ) ",
"T T P W W C K C v v C W W v x H v v K K C v c v @ @ O.i i O.O.@.O.O.O...O.O.O.O...&   W Q ! Q W ~ Q W W W W W Q W K K W T W ~ W ",
"i g p p G p u p p z p p t t t u p p p y y u y y   4 O.+ . . . . . + O.O.O.O.O.O.O.O.  d p u p u p u y p G > t G z g t d u p G G ",
"E R R &.} } { { | ..| x G P P P { P ( P K P ( W   ..O.O.* * * * * . 5 O.O.O.O.O.O.& . ( ) ) ) W _ ( | } P G > H W a P +.( { E E ",
"R T } ..} } { | ..@.P d R } ..*.*.{ ( ..@.| ( W   E G G O.O.O.O.O.E  .O.O.O.O.O.... # C W ( ( ) ) ( _ ! H ! ( P ( x { | { ( P T ",
"x K ! K x x K x K C W ) ( ! W ( ) ) ( ( ( ( W # . &.4 * + O.+ + G G O.* O.O.O.O...  W K | W | K | C ( W x | ..{ T +.| ! ( ( ! ! ",
"K W v ! ( ( ) ! W W W ~ ~ ( ~ ) ( ) W ~ W W W # & ..G G 4 E O.O.O.i * O.G G + * 4   ^ W Z W Q Q ! ! W W ) ) ! ` | ! ! W x V W W ",
"V Z Z ~ | ) ^ / ) ~ ) ^ ~ ) ) ) ( ! Q ~ ) ~ ~   4 O.G * G G * + O.* . i * * i E & # B C Z Z Q Z Z Q Q Z Q Q ^ ) { ^ ~ ^ Q W W Z ",
"Z Z Z ^ ` ` ) / ^ C z C ^ ' ) ( ) ) W ~ ~ ^ )   O.+ * 5 E * * O.O.O.O.O.O.O.E O.  : ^ Q W Q ^ ^ Z Q Q C Z Q Q ! ! Q Q ! W Z Z Q ",
"j j k a x x x j k q q j j j k a a j a a s e =   O.* O.O.E E i * O.O.i O.* O.O.O.  k M V k k k V V V M k k M j z W x k s k k x a ",
"l l l l c k l c k e a j e j c c c c I c c b o & O.i * i * + i i O.O.. * . O.O.& . A b b l l b l k l l l D l k l c v l v v v k k ",
"N A A A F A A A b b l b b l l b D D C b ~ ~ $ & i i + + i i O.O.O.+ . + + O.O.& O F A A F D F F A A S S A A / ) ^ F F F F A A A ",
"l l l b A e w r l r k l k b b c b c b b b U   4 O.O.O.O.O.i i O.O.+ * . * O.O.  2 A D / F / D D / [ F A A D / O._ / b D D l l k ",
"n r r e w w l b l l b U b b b f l v b U ~ c   O.i * O.+ * * i O.O.i * * * O.O.  b _ _ b o.U b U o.%./ F b / b T ~ o._ z D D k e ",
"N l D D b b b U b b b U b b b z b c U U U 2   O.* i i i O.O.O.O.O.i i i i O.4   @.=.o._ _ b U _ _ _ / b b b b / b U ~ b ~ D b b ",
"A b A D b b D U ~ U U b b b b b b v v v U @ & @.O.* * O.+ + * O.O.O.O.O.i O.& & =.@._ D b b / @.@.o._ _ D D ~ ~ / D D U D D b l ",
"/ / ` / U / _ _ _ } L J I _ I c I T ~ ~ T . @ O.+ * * * * * O.i + * O.O.O.O.& & T E o.o.o.` _ o.o.o.o.#.o.#.` / / b D / / ~ F / ",
"c c c c z z b b c z h p y 3 3 y f c f z z   O.O.i i * i i i i * i i O.* g O.& X f I c j j f f f z f j j c j c j f f e f e e j c ",
"z c c I U I K J J J J J J c c c I I I I @ . O.* * O.g * O.i g i * i i * * O.& o I c J c b J J b c J I c I c c c c b U c c z c z ",
"~ b D ~ ^ D ~ D v b D ~ b b v v D b D b O . & @ & & & & & & & & & & O.O.O.O.& $ D ~ ( ( ~ ~ U ~ / F ^ / F D b y 2 U ^ ^ ~ ^ b F ",
"D D b ~ / b D D ^ ~ ^ / / / ~ ^ / / F / 2 O % $ $ O $ O $ o O O O .         . $ ` ` _ ] o.` / ] o.` ` ] / ~ v 3 3 I D l D ^ ~ F ",
"^ ~ / / / / ` ` [ #.` ` _ _ _ ` / ` / ` ` #.` / / / D F D D ~ D / U b o.` 2 & 2 _ _ _ _ / _ o.o.` / ` c v / / _ ~ b b ` ~ N l v ",
"~ U D / / / o.[ C ( o.o.` ` | ` o.` ` ` #.` / / D D D A D ~ U 9 I T c b _ _ _ _ _ _ ~ ~ U _ _ o._ o.~ f b U _ I U ~ ` _ ~ _ ~ U ",
"( U ~ ^ D b F v z ~ ~ ~ ~ ~ U D _ ~ / ^ / D ~ b D v b D F b b - 4 b c b c b ~ ~ / _ _ _ T ~ ~ ~ / ~ D / ~ D ~ b ~ / _ ~ U ~ _ ~ ",
"/ F / ^ / F / / _ ) / / / D A D D D D ~ / ^ ~ F D A l A A D D J b v l v l b ^ U ~ / ~ ~ D D D D D D D D ~ D A v D D / / / D ~ ~ ",
"l l v l C l k v v v c c b c c c j k l l x c v c x k j k l k l f f e e e a k k l l l v l b k j l l k k l k k l l c l l b j b j b ",
"z c v ~ / ^ N l V V l K ( ~ P c e z I K K K K c c c I v l z v z e l j 9 e l l v v k k z x x z 9 k l l c c z l l j v C K C v K v ",
"^ A F S S S F F F F F Z F C A C D N N N C v A l x v l B N A N B C C I b N C A B N m N C A S B B A F ^ F F ^ ^ ^ D ^ F ^ F D F ^ ",
"F S F F F S Z Z F S F D C C C C D l N k l N l l C C v D A A A b x b I _ l l l F A C D D / ^ F ~ / ) ` / ^ D F ^ F F F C C F F Z ",
"^ ' F Z Z F B B Z C N C N Z ~ A l ~ D ~ C b ^ v ( C k w k l k a 4 h ( ( ~ C b v _ / U ~ ( / / _ _ ` ) D C F ) ) ^ F C D ^ F C F ",
"_ Z / #.[ ] F r n M V V x W ) / D _ ^ ~ v ~ / ^ U ~ C C ~ ~ b j 9 l ~ ( ~ ~ / ~ _ _ ^ ~ ~ ^ D / / ` ` ` ` / _ ` | C ( | _ ( U C ",
"P s ] [ ] ] / / ) ) ) _ _ ` ` / ) ~ ~ K D / _ ) ~ ~ ( / ^ ( ~ D D D ~ ~ ~ ( / _ ` / ~ ~ ~ ^ ^ D F ^ ~ ~ ~ ~ ~ / ~ ~ ~ _ ) ` ( ( ",
"| h ( ` ] ` _ ] ] / _ ` ) ) ) ^ ~ / ( ( ^ ^ / ~ ` ` ) _ _ / ( ~ _ _ ` ` | ` [ ` ` _ ` ` _ _ ` ` _ _ ~ ( ) ) ) _ _ _ ` ` ] | | | ",
"( K c k l k k c l z j j x x z x z z z z j e j c z v z l z c f j c c c b c b z f z I b I I c b z l j z v c v v v v W v C l x W c ",
"Z B Z m M B B M Z C M w M M V V M V B N N e k e e x l k b l j k k l N l l v N k k l j l C l v N r V N V Z ^ B B B F B B B F F F ",
"Z Z M M m M V M B M M Z B N M M n M M M M k k y > j N N N B A N m N F F S A F A N n N l n N N B N C N N N N Z ^ F F ^ Z B S S S ",
"Q ~ W H W W W W C W W W Q W Q Z W W Q V x v v x x K ~ C C F F F D D C F F F ( j K v D ~ C x V C V D W v C l x W ~ C V M Z ! ` W ",
"{ P  .x Q x ! s x ( ( x V W V ~ X.X.K s ) z V ) ^ N x | ~ W ` ~ ~ ] ) / ^ ` _ _ ` / ` ` ` ^ ~ ) _ _ ( P { ` ~ ~ ) ) ( s Q $._ j ",
"( P P P ` H ! H s V W K x ! X.] ] ) | ! W ( W W ~ ~ ` ) k ! | ^ C | $.%.~ / O.` ~ ) U ) v U ` | ( x ~ K  ._ ~ ( ) ~ _ ( ! W ) ( ",
"( ( ( ( { ..) ] ! W ! Q W Q ) Q ` ^ ! ` W Q Q / ) / Q Q ~ ^ V C ^ ^ D F ~ _ / ^ ~ / v / l l ` O.C l l J | _ j ~ ) ` ^ ^ ) W W ! ",
"_ ( ( _ ] ) ) ] ! Q Q ) X.Q ` ) ) ] ^ ) ) ^ ) ] ` ] ] ] / / / F F ^ D / / ] _ ^ ) ` / [ ` / F / ` _ _ _ _ ~ ` ` ` ` ` ` ] ) ` _ ",
"x z d z d a x H W W V H K H W W v V x k k V M k e N C V l N e v l e 0 e l j z j f l v c j z 9 j q u z x e e k k k q q e x l x x "
};
