/* XPM */
static char *result[] = {
/* columns rows colors chars-per-pixel */
"64 64 188 2 ",
"   c #010101",
".  c #0C0C0C",
"X  c #111111",
"o  c #1B1B1B",
"O  c gray14",
"+  c #2B2B2B",
"@  c #312922",
"#  c #3B342D",
"$  c #333333",
"%  c #3E3732",
"&  c #3B3B3B",
"*  c #423B33",
"=  c #463E3A",
"-  c #4B443D",
";  c #414141",
":  c #4F4844",
">  c #4C4C4C",
",  c #544C44",
"<  c #564F4C",
"1  c #5A514A",
"2  c #525252",
"3  c #5D5D5D",
"4  c #635445",
"5  c #63554C",
"6  c #675848",
"7  c #6C5E55",
"8  c #645E5B",
"9  c #6E6153",
"0  c #726252",
"q  c #71645D",
"w  c #75695E",
"e  c #7A695C",
"r  c #636363",
"t  c #6E6865",
"y  c gray42",
"u  c #746760",
"i  c #756C63",
"p  c #7A6E63",
"a  c #736D69",
"s  c #7B726B",
"d  c #757575",
"f  c #7B7572",
"g  c #7D7875",
"h  c #7B7B7B",
"j  c #8B6F5E",
"k  c #8B725C",
"l  c #AA7F5D",
"z  c #816D62",
"x  c #83756A",
"c  c #87786C",
"v  c #947B64",
"b  c #9C7D66",
"n  c #957D6C",
"m  c #987E6F",
"M  c #867B75",
"N  c #8B7C71",
"B  c #997F71",
"V  c #A67F62",
"C  c #A87F61",
"Z  c #AB825E",
"A  c #998066",
"S  c #9D836C",
"D  c #86817E",
"F  c #8D827C",
"G  c #948273",
"H  c #9C8475",
"J  c #92867B",
"K  c #A58165",
"L  c #AC8463",
"P  c #A4836B",
"I  c #AE8C6E",
"U  c #B58C65",
"Y  c #B38D6C",
"T  c #B98F68",
"R  c #B6916E",
"E  c #BC936E",
"W  c #A48671",
"Q  c #A48A74",
"!  c #AD8D73",
"~  c #A38B7C",
"^  c #AB8E7A",
"/  c #B28F73",
"(  c #B98E74",
")  c #B08F7A",
"_  c #AE9275",
"`  c #A6907E",
"'  c #AD927B",
"]  c #B49274",
"[  c #BB9574",
"{  c #BD9976",
"}  c #B4957A",
"|  c #BA967A",
" . c #B6997C",
".. c #BC9A7C",
"X. c #BFA07D",
"o. c #C2956E",
"O. c #C6996C",
"+. c #C29673",
"@. c #C39B75",
"#. c #C99D75",
"$. c #C0977A",
"%. c #C39D7C",
"&. c #C99E7C",
"*. c #C7A077",
"=. c #CBA077",
"-. c #C5A17E",
";. c #CAA27C",
":. c #848382",
">. c #888381",
",. c #8D8C8B",
"<. c #9B8D84",
"1. c #938C88",
"2. c #96928F",
"3. c #9A9795",
"4. c #A58E81",
"5. c #A79184",
"6. c #A2938B",
"7. c #AA9689",
"8. c #AB9888",
"9. c #AD9A8D",
"0. c #B59781",
"q. c #B69B83",
"w. c #BC9D82",
"e. c #B59E89",
"r. c #BB9E8A",
"t. c #A49C97",
"y. c #AA9C95",
"u. c #B19E93",
"i. c #B7A087",
"p. c #BEA184",
"a. c #B6A18E",
"s. c #BDA28C",
"d. c #AEA29B",
"f. c #B3A095",
"g. c #BCA492",
"h. c #B7A59A",
"j. c #BBAA9E",
"k. c #A4A2A1",
"l. c gray68",
"z. c #BCABA1",
"x. c #BDB4AF",
"c. c #B6B4B3",
"v. c #BCBCBC",
"b. c #C29E82",
"n. c #CA9F81",
"m. c #C19F88",
"M. c #C5A284",
"N. c #C9A484",
"B. c #CBA986",
"V. c #C4A58A",
"C. c #C9A68A",
"Z. c #C6A98D",
"A. c #CBAA8C",
"S. c #D0A685",
"D. c #D1AC8C",
"F. c #D4B18F",
"G. c #C3A691",
"H. c #C5AA93",
"J. c #CBAC92",
"K. c #C6AC99",
"L. c #C9AE99",
"P. c #D0AF93",
"I. c #CDB195",
"U. c #CCB29A",
"Y. c #CFB89E",
"T. c #D3B392",
"R. c #D3B49B",
"E. c #D3B89B",
"W. c #C0B3A7",
"Q. c #D3BAA3",
"!. c #D4BAA6",
"~. c #C4B9B2",
"^. c #C9BCB5",
"/. c #DCC2AF",
"(. c #DAC5B3",
"). c #D0C5BE",
"_. c #C3C3C3",
"`. c #CFCAC8",
"'. c #D4C9C3",
"]. c #D5CAC5",
"[. c #D7D3D1",
"{. c #DED6D1",
"}. c #E4DDDA",
"|. c #E6E6E6",
" X c #ECE7E4",
".X c #EBEBEB",
"XX c #F3F1EF",
"oX c white",
/* pixels */
" .0.| q.} ] | | ....w.|  .| | | w.w.b.&.w.%.( | | m.w.b.0.q.q.0.0.q.0.0.0.0.} _ Q ! Y _ ! }  . .} ] | | }  ._ } ] }  .|  .| | | ",
"b.&.%.b.-.%.-.%.M.b.n.m.b.C.b.b.b.&.$.+.+.E o.+.%.| M.b.%.%.b.w.V.C.n.M.%.[ +.[ s.w.M.M.-.M.-.-.b.M.M.M.%.%.[ %.%.%.%.@.@.&.$.%.",
"%.M.N.%.M.M.C.N.N.C.C.n.C.N.b.M.b.b.$.$.| $.$.$.0.P m.M.b.b.b.M.C.A.A.A.C.N.n.$.| V.A.Z.D.S.N.N.N.S.;.;.M.-.;.;.N.&.@.%.-.;.-.%.",
"m.V.m.%.b.m.C.J.J.A.A.D.C.N.M.C.C.C.M.C.m.A.C.C.V.! | M.b.M.A.D.C.A.J.J.R.L.J.A.M.V.Z.M.M.N.N.N.N.M.M.%.-.-.-.N.;.%.%.M.N.A.Z.M.",
"A.J.J.V.0.^ Q r.G.H.V.J.J.J.J.A...E ( w.m.G.G.s.s.0.q.J.V.A.D.A.N.b.M.m.b.%.M.Z.V.w.M.N.D.D.S.M.n.%.n.S.M.N.N.N.C.C.M.b.M.N.A.A.",
"C.A.H.V.} Q C +.$.| b.b.b.N.M.n.&.C.Z.M.m.V.H.A.M.m.A.A.D.C.N.S.;.&.C.A.w.$.%.%.b.| C.C.N.;.S.N.;.S.N.S.&.N.%.M.N.N.n.&.-.M.b.M.",
"V.N.V.V. .V ( b.V.[ &.C.C.D.D.;.#.@.N.b.b.V.V.b.m.b.M.N.N.S.S.S.;.C.A.C.V.@.;.N.b.| C.C.M.;.S.M.N.;.&.| &.D.D.D.D.D.P.D.D.C.N.M.",
"m.m.M...[ I ) G.V.%.| &.n.&.&.@.$.$.&.&.$.b.%...| %.%.@.&.$.&.+.@.@.%.| [ T [ ....b.%.| %.&...[ %...[  .b.b.N.N.M.n.N.C.C.A.m.b.",
"K K K K P I W Q Q ) } | } ( / / ) ) ( / / / / / ! Y / ] Y Y ( [ ] ] / Y I ! _ / ] Y L L L U I l Z L L L L L L L C C C C V V P K ",
"V.s.V.V.V.G.V.V.H.V.A.V.m.C.M.n.b.V.M.N.M.M.N.M.N.M.M.N.N.D.N.N.C.N.M.} ] b.-.M.%.%.@.$.@.;.%.%.%.&.%.&.b.@.@.n.b.%.M.w.r.V.G.V.",
"s.s.M.V.V.G.V.V.V.V.V.V.V.C.V.V.C.n.M.n.%.%.%.%.M.M.M.M.&.b.b.b.b.%.%.I _ %.b.b.M.%.b.M.M.b.M.V.C.M.V.C.C.V.C.G.A.V.Z.H.K.J.G.g.",
"m.s.$.$.| / } w.w.b.m.%.$.$.&.b.n.J.A.J.J.J.V.V.C.M.V.V.Z.A.H.A.C.w.w.s.V.V.V.V.H.H.Z.V.V.M.M.b.V.N.n.&.&.$.b.&.%.%.%.%.%.%.b.w.",
"V.s. .&.o.( ..w.b.b.N.m.b.b.M.M.b.J.G.V.J.L.J.C.M.b.%.$.%.b.b.M.A.V.V.Z.J.V.J.J.H.I.H.V.V.M.A.H.Z.C.A.J.L.H.H.H.H.G.V.G.H.V.V.m.",
"V.V.s.V.V.N.C.A.J.J.J.P.R.J.J.J.P.D.C.C.A.P.L.J.V.H.H.V.V.J.H.Z.V.V.M.M.V.Z.G.G.C.V.C.M.J.Z.A.J.V.H.H.J.V.w.w.w.w.V.V.V.H.V.V.V.",
"V.V.s.s.L.J.A.C.C.A.C.C.C.C.C.N.C.N.b.m.b.m.m.N.M.V.M.M.N.M.b.%.b.b.n.b.b.M.N.M.M.N.M.b.V.M.C.N.M.M.M.V.C.b.b.C.C.V.b.b.V.A.V.G.",
"w.m.w.w.G.G.m.C.m.C.C.C.C.C.C.C.C.C.N.n.C.n.C.N.C.N.M.M.M.V.C.C.N.N.N.M.N.M.N.N.M.M.M.M.N.C.b.M.b.%.M.N.b.w.| | b.w.w.m.b.V.b.b.",
" .q.0.w.0.) } 0. . .| } } / ] | } }  .} / ^ ! / ! ) } ] / ! / } ! } } } ) } ) / / ] ( / ) / / ! / / / } ] ! ! ) } / _ } } } 0.) ",
"V.m.m.C.C.V.C.C.V.V.A.V.C.N.C.C.C.C.N.N.n.M.M.M.M.N.M.%.%.b.&.b.m.M.V.m.M.M.N.N.M.b.V.b.N.n.b.b.N.n.M.%.%.%.b.C.V.M.V.M.V.w.V.m.",
"r.G.q.w.V.m.m.m.p.M.N.b.b.m.M.M.M.N.M.m.M.b.m.V.M.M.M.v N.M.M.b.M.V.V.M.b.v   4 V.V.V.V.A.V.C.C.A.A.J.D.V.M.M.V.m.w.w.w.b.q.r.m.",
"r.r.r.0.H.J.G.G.G.G.K.H.G.H.J.V.V.J.V.V.m.V.M.V.m.A.V.@   v N.b.M.M.g.V.V.4 4 V.V.w.m.V.V.w.m.m.m.C.m.G.H.H.K.L.G.s.r.g.u.r.m.r.",
"M.C.V.w.P.P.H.A.Z.Z.L.J.V.J.J.J.J.I.J.L.H.G.H.G.L.L.L.L.n   B K.H.G.G.g.g.5     K.K.K.L.L.K.K.L.K.L.J.G.L.U.L.J.H.V.G.s.H.V.m.b.",
"&.n.b.N.C.C.C.n.N.N.N.M.N.N.C.N.M.M.M.C.M.M.V.s.Z.J.Z.Z.H.G . * X X X # 1   G H.H.L.L.K.J.H.J.H.J.J.V.V.V.A.C.V.V.M.M.V.&.n.M.;.",
"V.H.A.m.N.n.M.M.M.;.M.M.-.%.b.b.b.M.b.b.b.b.w.-.M.M.M.V.G.J.o O % O 4 O o 7 J.V.V.G.J.V.C.C.S.N.C.D.D.N.N.C.C.C.C.N.A.V.N.N.A.A.",
"s.s.r.w.b.b...&.%...%.b.b...b.| | w.w.b.%..... .....s.V.H.4.$ 4 5 & j = + V.s.r.|  .m.b.n.b.n.b.N.b.b.b.b.b.b.b.w.w.w.w.M.M.b.w.",
"^ ` ` ^ 0.Q ! ^ ' ' ^ ^ H W Q Q ^ ^ ^ ~ Q ! Q ~ ^ 7.e.g.~ ; > 3 u < z z ; s r.e.0.^ ! ^ ^ ) ^ ! / ^ ! ^ ^ W P ^  .^ W ( ^ ^ 0.4.",
"j.g.H.W.K.G.H.V.H.U.J.| 0.r.r.r.s.s.V.w.w.b.V.m.V.J.L.e.> i N a 4.a a ~ 2 J !.U.L.J.A.C.C.C.C.m.V.V.H.H.r.~ H 0.b./ 0.Q.V.g.K.j.",
"g.s.H.L.K.H.H.J.L.Y.w.} G.G.K.!.!.V.V.L.Y.L.V.V.G.!./.2 3 f F  Xy.1.f 7.M 3 !.!.R.J.C.w.b.M.V.C.V.V.C.w. .M.V.g.m.| G.J.V.V.V.r.",
"| w.M.%.| | | ..b.%.m.V.M.m.m.V.G.A.V.V.@ @ . H.R.U.a 3 M u.1._.^..Xy.y.h y ~.(.U.7.o v J.b.J.w.J.b.V.m.| J.L.C.G.U.G.m.V.V.V.r.",
"w.b.b.m.m.V.V.m.b.w.b.M.M.V.b.C.V.N.b.n.b.4 * e c > 3 h h h.c.|.oXoX[.2.x.M y <.!.& ^ C.n.b.b.n.M.M.m.b.m.C.C.G.H.m.b.b.w.| b.b.",
"$.&.@.N.G.A.N.C.C.N.C.N.N.C.C.A.C.m.b.M.M.A.H $ ; 2 M u.,.l.oXoXoXoXl.v.'.j.h r a ; J.C.n.&.n.&.n.n.%.&.n.n.N.C.C.C.C.C.b.&.n.$.",
"&.&.%.N.A.D.C.N.M.%.} ..N.C.N.C.V.C.b.N.N.A.^ $ u a a y.{.oXoXoXoXoX.XXX^.3.:.h 3 J R.J.N.M.N.;.n.n.n.%.&.n.n.V.m.b.n.b.b.&.n.n.",
"] [ ] ] | | | [ [ Y Y [ [ ] ] / ] / / / / | : : B 4.:.x.`.oXoXoXoXoXoXoX.Xk.j.y.3 B P.C.%.[ [ $.$.$.+.[ [ [ | | | | | ( [ [ [ ] ",
"{ ] { { { [ {  .] ] R _ _ [ } }  ...X. . .A + 5 8 r v.oXoXoXoXoXoXoXoXoXoX~.t.h r J U.s.X.X.X.{ [ X.{ E X.X.{ [ { ..{ @.....[ { ",
"*.*.*.*.-.*.*.*.*.{ X.{ X.{ X.X.X.-...*.-.9 + ; 2 r d l.}.XXoXoXoXoXoXoX.Xk.,.D ` a E.F.;.;.;.;.*.*.*.*.*.=.B.Z.N.-.-.B.;.*.*.@.",
"{ E X.*.-.R R E { { [ { [ X.X. .X...X.v 1 * + & i 4.6.h.~.{.oXoXoXoXoXoXoX.X^.9.` > Y.Y.A.B.X.;.B.T.;.*.X.*.B.I.A.B.M.X.-.{ { { ",
"o.E R T T T { X.{ { -.X.X.X.X._ { ..X.6 - 6 - 1 n 4.9.1.l.oXoXoXoXoXoXoXoX).h.7.Q > Y.Z.I.M.X.p.I.E.B.;.X.B.X.g.M.Z.Z.[ X.-.[ R ",
"X.{ -.-.X.X.X.p.X...p.p.X.X. . .X. .p.p.p.I.Z.$ 7 H f h d.oXoXoXoXoXoXoXoX2.D M 9 ; t.I.I.X.M.s.Z.Z.-.X.X.-.-.M.X.p.M.X.M.-.X.X.",
"*.X.-.-.X.-.-.X.M.M.X.X.X.X.X.X.X... .X.p.p.s.Q & > 3 g ]._.'.'.|.|.oX'.z.f.<.t > 3 p Z.X.X.M.Y.Y.I.H.B.-.-.M.-.B.-.M.M.-.-.*.{ ",
"B.B.B.B.-.A.A.H.J.H.i.e.p.Z.i. .X.s.M.M.M.Z.J.L.x ; H 4.:.h d.z.3.,.`.j.u.7.~ B ; 8./.I.I.A.A.I.I.I.I.I.I.I.A.B.M.-.X.M.B.M.M.B.",
"}  . . .]  . . . . .' Q Q S A Q _ '  ._ _ _  .} | $ p 8 3 <.9.6.u.>.M 9.5.s c e p g.X.] _ _ ] }  ._ ] ]  . . .] R _ R R ] R } ] ",
" . . .i.p.p.i.q.q.q.q.q.q. . .q.i.i.i.i.i.e. .e.a.O $ < m H x a 5.M a ~ H q ; $ w a.i. .X.q.i. . . .X. .w. . . . .X.p. . ... . .",
"M.-.M.-.M.-.-.-...X.X.M.X.X...X.X.X.-.X.-.X...-.M.* O - & < > > u 2 > > , & + O * A M.M.p.-.X.M.C.M.M.B.M.-.X.Q A p.M.-.M.M.X.-.",
"-.-.-.M.B.-.-.-.-.B.M.M.M.M.M.B.B.B.B.B.M.B.v     . 0 0 , $ $ & N M M e.Y.p e - .   6 J.A.I.B.I.I.A.A.D.B.-.X.S G X.X.X.%.-.-.M.",
"M.M.B.B.B.M.A.A.T.T.D.A.A.A.J.B.A.A.B.B.A.A.  A B.B.B.B.B.Q w , + O O O - 9 #   4 4   A Z.A.I.A.A.A.J. ...B.Z.M.Z.X.X.A.M.%.{ @.",
"M.M.-.B.B.B.I.F.%.M.I.I.J.Z.Z.J.I.J.A.I.T.A.B.M.-.-.-.-.B.M.M._ s.H.i.M.6 6 4 Z.Z.C.A 1 M.M.A.I.I.I.M.R X.p.H.p.p.M.B.A.M.M.p.M.",
"M.p.M.M.M.X.-...} M.C.M.-.M.M.-.-.B.N.M.B.M.M.-.-...*.-.-.X.X.k Q q. .X. .p.M.M.M.Z.Z.p.p.Z.M.M.-.M.M.B.B.-.p.X.p.B.Z.M.M.V.Z.Z.",
"M.M.B.B.B.;.;.D.A.V.Z.M.B.-.-.-.-.-.-.M.N.M.B.-.-.-.{ *.-.-.M.i.....| { ..-.M.M.M.B.M.B.-.-.-.-.-.;.-.-.-.-.-.-.;.-.B.Z.-.B.-.M.",
"{ { { ..{ { { X.....X.X. .{ {  .[ ] { { | .... .] [ [ { E [ { _ ] ] R R R { { ] ..{ ..{ {  .{ [ { ] [ { [ [ { ] ] X.{ {  . .{ X.",
"......p.Z.;.%.%.$.....w.M.M.p.q.] ] p...r.w.p. . . .q.w.{ { ..] R ] } I U { { ..| { { ] | | ] Y [ { [  ...] ] | ] ..w.%.........",
"-.;.;.=.=.=.=.;.;.=.=.;.;.%.%.%.-.{ @.%.@...@.{ { %.$.$.@.@.@.@.*.X.X.p.%.%.*.#.@.@.@.@.*.;.=.=.*.;.-.-.N.N.N.B.N.;.;.N.N.-.;.N.",
"=.=.;.=.=.=.=.=.=.;.&.;.%.%.-.@.*.@.$.{ { ..{ { %...*.-.*.-.-.-.....i.V.{ { @.M.*.-.-.M.M.N.B.-.-.Z.F.D.;.;.-.B.;.;.*.;.%.;.;.&.",
"N.S.N.;.%.;.;.@.&.%.$.%.@.@.M.-.{ M.-.M.%.X.M.-.M.-.E Y [ { { I G ' V.M.M.-.X.X.Z.M.M.M.M.B.M.Z.A.Z.B.-.%.M.B.M.N.;.%.-.M.;.%.;.",
"A.b.D.F.F.D.;.E +.+.$.| | b.C.N.%.C.N.M.-.M.B.M.M.p.M.-.M.M.-.] _ { M.M.p.M.B.M.A.B.M.M.M.M.B.B.B.A.A.J.B.Z.C.I.J...V.A.A.V.b.%.",
"r.( A.F.D.D.A.;.N.C.C.A.A.A.D.N.Z.B.M.w.M.N.B.Z.M.M.M.M.M.M.M.X.-.-.M.M.B.M.M.A.A.Z.M.B.M.M.-.-.M.B.M.M.M.B.M.C.M.M.N.Z.Z.A.V.V.",
"J.' M.D.A.A.Z.F.A.N.A.A.A.C.A.M.M.M.V.M.M.N.N.C.A.A.A.A.Z.M.M.M.M.Z.J.I.J.A.D.A.J.J.J.Z.C.A.A.A.A.C.M.V.V.M.Z.A.Z.A.A.A.D.J.J.J.",
"M.w.w.] { | [ | ..| ] ] } | |  .} }  . .] I ] ]  .|  .] .. .]  . . .X.]  .X.} _ } i. .X.w.q. . .] [ ] X.| ....{ ..b...%...| %.q.",
"=.&.#.o.#.#.&.+.;.@.+.o.o.+.[ $.[ $.@.@.$.E [ ] Y { { { { { E [ { { @.{ { ..{ { [ ..] { %.{ $.@.E @.@.@.;.N.;.#.=.;.&.#.O.;.S.;.",
"&.&.+.+.o.+.+.+.&.+.+.$.@.&.#.+.+.+.+.O.o.[ [ I b ] $.@.*.*.*.@.@.@.;.;.=.=.;.*.@.E O.{ @.@.@.@.@.@.$.$.$.@.@.&.;.;.N.&.=.=.=.#.",
"b.N.b.b.$.b.n.b...%.m.n.M.n.n.%.&.b.n.b.| w...| ..b.M.%.%.M.&.%.;.;.%.;.;.;.M.] w.%.-.N.%.[ %.%.%.%.M...%.%.%.b.M.%.$.+.&.m.C.M.",
"H.q.K.( C.0.m.( | C.V.| $.b.[ M.P.J.w.( A.] ..Z.N.{ | J.b.b.J.M.-.D.Z.N.N.Z.A.H.Z.B.A.A.Z.N.M.C.A.Z.s.r.V.A.M.M.V.N.V.( b.R.V.[ ",
"V.r.r.r.A.0.m.0.( $.0.b.| m.A.A.P.C.A.m.m.M.n.M.M.C.A.C.[ w.J.N...A.E.E.M.C.I.J.M.A.X.N...p.J.J.V.| M.r.J.Z.M.V.C.V.V.C.m.b.V.G.",
"V.V.s.V.G.J.C.A.m.b.n.m.b.n.C.S.C.C.n.C.b.b.N.N.S.N.n.&.N.N.%.%.N.B.-.-.M.C.M.B.M.B...Z...{ C.I...{ .. .K.V.} p.C.A.N.M.N.b.M.b.",
"A.V.A.V.P.C.C.D.m.S.n.C.A.S.J.n.C.D.N.C.N.C.A.S.D.D.P.C.B.B.;.N.N.B.;.-.D.A.M.A.A.A.B.F.A.B.M.B.Z.A.Z.A.C.C.A.A.A.A.A.A.D.Z.A.A.",
" .^ } } ) / | 0.$.b.$.0.m.0.b.m...$.| [ [ $.[ [ R @.%.$.{ @.] { @.R U Y { ]  .] ] ] .. .] ] I R R ! } ] Y R [ [ | U U ] { { | } "
};
