/* XPM */
static char *result[] = {
/* columns rows colors chars-per-pixel */
"64 64 185 2 ",
"   c #3A1E0E",
".  c #3C261C",
"X  c #322122",
"o  c #44230C",
"O  c #49250D",
"+  c #472817",
"@  c #4B2911",
"#  c #442A1E",
"$  c #532D15",
"%  c #5C381E",
"&  c #432D26",
"*  c #512E28",
"=  c #493126",
"-  c #41372C",
";  c #5B3928",
":  c #443D3F",
">  c #583833",
",  c #623B20",
"<  c #763B36",
"1  c #57453A",
"2  c #66402A",
"3  c #71492D",
"4  c #6D443C",
"5  c #754A38",
"6  c #5B5347",
"7  c #5F584E",
"8  c #585654",
"9  c #5B5957",
"0  c gray36",
"q  c #744D43",
"w  c #7B4D43",
"e  c #66594B",
"r  c #6A5B4C",
"t  c #745447",
"y  c #7C5344",
"u  c #775847",
"i  c #795148",
"p  c #745A4C",
"a  c #755D54",
"s  c #7E5F58",
"d  c #66635E",
"f  c #6A6158",
"g  c #746153",
"h  c #7E6A55",
"j  c #7C665C",
"k  c #686868",
"l  c #6D7177",
"z  c #835F4F",
"x  c #A15A4A",
"c  c #866B56",
"v  c #836A5C",
"b  c #8B6D59",
"n  c #936655",
"m  c #976758",
"M  c #8B715C",
"N  c #93765D",
"B  c #BA6F5B",
"V  c #A9765B",
"C  c #8C7463",
"Z  c #9C7E66",
"A  c #967B68",
"S  c #9B7C69",
"D  c #AA7E63",
"F  c #AA7B67",
"G  c #B07061",
"H  c #BB7864",
"J  c #C47F6B",
"K  c #AB825E",
"L  c #9D826C",
"P  c #968371",
"I  c #9E8575",
"U  c #A58165",
"Y  c #AC8463",
"T  c #A4846B",
"R  c #AE816B",
"E  c #AD8C6D",
"W  c #B38668",
"Q  c #B38D6C",
"!  c #BC8C6A",
"~  c #B6916E",
"^  c #BC936E",
"/  c #A38671",
"(  c #A58A74",
")  c #AD8D73",
"_  c #A78D7A",
"`  c #AB8E7A",
"'  c #B28F73",
"]  c #B58F77",
"[  c #AE9175",
"{  c #A7907D",
"}  c #AD927B",
"|  c #B49274",
" . c #BB9574",
".. c #BD9976",
"X. c #B4957A",
"o. c #BA967A",
"O. c #B6997C",
"+. c #BC9A7C",
"@. c #BFA17E",
"#. c #CC8A6B",
"$. c #C2956E",
"%. c #C6996C",
"&. c #C58974",
"*. c #C29673",
"=. c #CB9176",
"-. c #C39B75",
";. c #C99D75",
":. c #C3967B",
">. c #CE967B",
",. c #C39D7C",
"<. c #C99E7C",
"1. c #C7A077",
"2. c #CBA077",
"3. c #C5A17E",
"4. c #CAA27C",
"5. c #E1A37E",
"6. c #8A8987",
"7. c #819398",
"8. c #929291",
"9. c #9A9A9A",
"0. c #AF9482",
"q. c #B49781",
"w. c #B69A83",
"e. c #BC9D82",
"r. c #B69D89",
"t. c #BB9E8A",
"y. c #B7A087",
"u. c #BEA184",
"i. c #B6A18E",
"p. c #BDA28C",
"a. c #BDA392",
"s. c #BDAB9D",
"d. c #C29E82",
"f. c #CB9F83",
"g. c #C19F88",
"h. c #CB9E8B",
"j. c #D59C85",
"k. c #C5A284",
"l. c #C9A484",
"z. c #C4A887",
"x. c #CBA986",
"c. c #C4A58A",
"v. c #C9A68A",
"b. c #C6A98D",
"n. c #CBAA8C",
"m. c #D6A587",
"M. c #D1AC8B",
"N. c #D4B18F",
"B. c #C3A691",
"V. c #C5AA93",
"C. c #CBAC92",
"Z. c #C6AC99",
"A. c #C9AE99",
"S. c #D0AF93",
"D. c #CDB194",
"F. c #C6B09F",
"G. c #CCB29A",
"H. c #CFB99E",
"J. c #D3B392",
"K. c #D3B39A",
"L. c #D8B89D",
"P. c #E7AB84",
"I. c #E4AA89",
"U. c #E9B494",
"Y. c #E7B99F",
"T. c #EDBD9D",
"R. c #C7ACA0",
"E. c #D2B9A4",
"W. c #E9BCA4",
"Q. c #D4C2A8",
"!. c #EDC2A6",
"~. c #EDC3AB",
"^. c #F1C4A5",
"/. c #F3C7A9",
"(. c #F5CCAF",
"). c #ECC9B9",
"_. c #F4CDB2",
"`. c #F7D2B6",
"'. c #F8D2B7",
"]. c #F9D5BA",
"[. c #D5CEC8",
"{. c #F7DAC7",
"}. c #F9DECC",
"|. c #F9E2D3",
" X c #F9E6DB",
/* pixels */
"O.q.o.w.o.|  .| +.+.+.o.+.O.o.o.o.e.g.,.,.d...o.o.k.d.d.q.q.w.q.q.w.q.q.q.q.X.` ( [ Q ) ) X.O.X.X.| o.o.X.O.[ X.X.X. .O.O.o.o.o.",
"d.<.,.d.k.,.k.,.d.f.d.d.k.k.d.d.f.d.<. . .! ! $.+.O.k.d.d.,.d.d.k.c.l.k.,...^ *.g.e.k.k.k.k.k.4.k.k.k.,.,.,...:.-.3.,.,.-.<.-.:.",
",.k.l.,.k.k.v.k.v.l.v.h.v.l.d.l.k.,.:.:.o.o.=.:.q.T g.k.d.d.d.k.v.n.n.x.l.l.f.:.O.p.n.n.x.x.l.l.l.m.4.k.k.3.<.l.4.3.,.,.3.3.3.,.",
"g.c.g.,.e.k.v.C.C.C.n.M.v.l.k.v.v.c.k.c.v.C.n.c.c.( o.k.d.c.x.J.n.n.C.C.K.D.A.c.k.c.n.k.l.l.l.l.k.k.k.<.3.3.3.4.4.,.,.3.v.n.n.c.",
"n.C.C.c.q.` ( t.B.V.V.b.C.C.C.n.+. .Q e.g.B.B.t.t.q.w.C.c.n.n.x.l.k.k.g.d.k.k.c.c.e.,.k.M.M.x.4.<.3.k.m.3.k.l.l.v.l.v.,.3.l.n.n.",
"v.n.V.c.X.( D *.:.o.,.k.d.l.l.d.<.l.n.k.g.B.b.n.k.c.n.x.M.v.l.m.<.<.v.b.e.:.,.3.f.q.n.v.l.l.l.l.3.m.m.l.<.k.<.k.l.l.k.,.3.k.d.d.",
"c.l.c.c.O.F  .d.c. .<.x.M.M.M.4.*.<.k.k.d.v.k.c.g.k.k.k.k.l.m.4.4.x.n.n.k.,.4.l.,.O.v.v.l.<.l.l.l.4.4.o.,.x.N.M.M.M.S.M.M.v.l.l.",
"g.g.k.+. .E ) B.c.+.o.:.<.<.<.:.<.*.<.:.:.d.,.+.o.:.,.<.<.<.<.*.:.<.+. . .!  ...:.e.,.+.,.<.+...:.....O.d.k.l.l.f.k.l.v.v.v.g.g.",
"U T U F T E / / ( ] X.o.o.] ' ] ] ] ] ] ) ' | ' ) E ' ~ ! Q  . .| ~ E ) E ) [ ' | ' Y K Y Q W K V Y Y Y Y Y Y Y D V V U U U T T ",
"c.p.c.c.B.B.c.c.c.B.b.v.c.k.k.f.d.c.c.k.k.k.k.k.v.l.k.v.x.l.v.l.v.l.k.| | d.3.k.,.,.<.-.-.3.,.,.3.<.,.<.,.*.<.d.3.l.k.u.u.c.c.c.",
"p.u.k.c.g.c.b.c.c.k.c.c.c.v.c.k.v.f.f.d.:.,.,.,.3.,.k.k.k.,.d.d.d.,.,.) ) ,.d.,.d.,.+.k.3.d.k.c.b.k.c.v.c.c.v.V.b.z.V.V.A.B.V.t.",
"c.p.o.-.o.] X.e.t.g.g.,.:...<.d.d.C.n.n.n.C.z.n.v.z.c.c.c.C.V.n.b.e.e.k.c.c.c.V.V.V.c.b.c.c.f.,.c.k.<.<.<.<.,.<.,.,.:.,.,.,.k.e.",
"c.p.w.;.%.] +.e.d.k.k.f.k.d.d.k.l.n.V.B.n.A.V.v.k.d.,.:.-.d.d.k.n.b.c.b.C.c.V.B.A.D.V.c.c.k.C.C.b.v.n.C.A.V.B.V.V.c.B.B.V.c.g.c.",
"c.c.t.c.c.k.v.n.n.C.C.A.K.C.C.C.C.M.v.v.n.S.A.C.c.V.V.c.c.C.V.b.c.b.c.k.k.c.n.C.c.c.k.c.C.C.n.C.b.V.V.C.b.e.g.e.t.c.c.c.V.b.g.c.",
"c.c.p.p.V.C.n.c.v.v.v.n.v.v.v.v.v.l.d.d.c.d.k.l.k.k.k.k.v.k.k.,.,.d.f.d.d.k.k.l.k.k.3.k.k.k.v.l.k.g.k.v.d.d.d.f.k.c.d.k.k.v.V.n.",
"e.g.e.t.B.V.h.c.v.c.v.v.v.v.v.l.v.v.l.l.k.h.h.v.v.v.k.k.k.c.v.k.k.l.l.d.v.k.l.l.v.k.,.l.c.v.d.d.f.,.k.k.g.+.e.+.d.e.e.g.d.g.g.d.",
"O.w.q.e.q.X.X.q.O.O.o.X.X.] | X.X.X.X.X.] ) ] ) ] ] X.) | ) ] ] ] X.} X.X.| ] ] ] | | ] ' | ) ) ' ' ' | ) ) ) X.] ` ` X.X.X.X.X.",
"c.g.d.v.v.c.c.c.c.c.n.c.v.l.v.v.v.v.l.l.k.d.k.k.d.l.k.,.k.,.<.d.e.c.c.k.k.k.k.l.k.d.k.d.k.d.f.d.k.k.k.<.<.,.k.k.c.k.n.d.g.g.c.g.",
"t.B.q.e.g.g.g.g.e.k.l.d.+.k.c.d.d.k.k.g.k.d.k.c.k.k.c.k.k.l.l.d.k.b.c.g.e.k.c.c.c.c.c.c.n.c.n.v.v.n.n.M.v.k.k.c.k.e.t.d.t.e.t.g.",
"t.t.p.q.C.C.B.B.V.B.Z.V.B.V.C.n.n.C.v.c.k.g.c.c.c.c.c.c.k.d.d.c.g.k.p.c.b.c.c.c.c.e.k.g.c.g.g.g.g.c.c.B.V.V.Z.Z.V.i.t.i.r.t.t.e.",
"k.v.c.e.S.K.C.c.b.b.C.C.b.C.C.C.n.A.A.C.V.Z.V.V.V.A.A.r.j a j s a ` B.t.i.Z.B.G.Z.V.A.Z.A.Z.Z.A.Z.A.V.V.A.G.A.V.V.c.B.p.V.b.g.d.",
"<.f.d.d.v.v.v.f.l.l.v.k.k.l.v.k.k.k.v.k.k.u.e.t.n.C.( w :.!.]./.=.z S t.0.a.Z.Z.Z.A.A.A.B.C.C.C.C.C.v.v.v.v.n.c.c.k.k.k.f.,.k.<.",
"c.V.b.v.k.f.4.k.k.4.4.k.<.,.f.d.d.k.d.k.d.d.d.k.k.d.t U.}.|.].].`.P.q t.g.b.b.c.c.n.V.c.v.v.l.m.M.n.v.v.v.v.v.v.c.v.v.v.l.v.x.n.",
"p.p.e.d.g.,.e.,.,.+.e.d.d.+.e.+.+.+.e.d.,.+.O.+.O.S m ].|. X].].'.(.G v X.o.q.q.X.w.e.,.d.f.d.d.d.f.d.d.,.d.,.k.,.e.e.g.e.k.d.g.",
"{ { { _ 0.( ) ` ` X.} ` / / ( ( _ 0.( ( ( ( _ ( _ C q.'.'.].].].].`.:.v X.[ ` ) ) ] ` ` ] ` ] ( ) ` ) ` _ T L 0.X.} / ] ( 0.` 0.",
"s.a.Z.F.Z.V.V.B.V.A.C.o.q.q.r.t.c.p.g.t.e.d.c.g.d.S q._.(.].].].].].h.C k.c.k.k.c.c.c.v.v.v.c.c.c.n.B.V.t._ I q.g.) t.K.v.a.Z.s.",
"p.p.V.A.V.V.V.C.A.G.e.] c.Z.Z.E.E.g.c.A.G.A.n.g.e.( V j.m./._._._.].K.C c.n.b.v.d.k.d.,.d.d.c.c.c.c.b.e.w.g.c.t.c.+.B.Z.c.c.t.a.",
"o.e.c.+.o.o.+.e.d.d.d.b.g.g.g.b.C.C.c.c.c.k.g.d.d.) z #.(.U.W.7.s ].S q.A.A.A.A.+.V.d.+.C.d.V.d.C.d.n.g. .n.A.c.p.G.v.g.c.c.k.t.",
"e.d.+.g.g.c.c.d.e.d.d.k.k.c.k.v.c.f.k.d.d.d.d.d.d.<.] 4 H P._.[.l '.v d.,.d.d.d.d.f.d.k.,.,.f.d.d.k.d.d.d.n.c.C.V.g.e.d.e.o.:.g.",
"<.<.<.l.C.v.l.v.v.l.l.v.l.v.v.v.c.c.k.k.c.l.d.d.d.d.T < x I.'.]._.o.c d.d.k.d.d.d.<.,.<.<.<.f.<.f.f.,.<.f.f.f.v.v.v.l.v.d.f.<.<.",
",.<.,.l.v.n.M.l.k.,.X.,.l.v.l.v.c.l.d.k.l.l.n.v.n.X.z ).j.B J &.B < N l.k.v.v.l.k.l.l.,.d.l.4.l.<.f.f.,.<.f.f.c.g.d.f.f.d.<.d.<.",
"'  .| | o.o.o.|  .Q Q |  .| | ] ] | ] Q ' Q |  . .i h. X{.^.P.5.I.! c  . . . .:...:.*.:. ...:.o...:.*. . . .| o.+.o.]  . . .o.| ",
" .....@... .O.| |  .~ ~ [ ~ | O.O.+.+.O.+.+.X.| o.p (.(.T.].].].'.K.b O.o.+.+...3...@.O..... ... .......3... . .+.+...,..... . .",
"-.1.-.2.4.1.1.1.-.@...@.@.@.@.@.@.3.@.3.3.z.3.l.l.p ^.W.>._.}.{.{.=.b d.,.3.4.4.x.4.4.4.4.4.4.3.4.2.2.2.2.2.x.n.l.3.3.4.l.3.;.-.",
"^ %.^ @.3.^ ~ ^  . .| ..^ @.@.O.u.+.@.3.u.u.z.1.,.b R {.G H f.~.~.i b l.3.-.-.-.1.1.3.z.l.z.3.1.l.S.4.;.-.3.u.A.b.z.k.@.3.......",
"^ ..^ ~ ! ~ ..@.....@.@.@.@.@.~ o...O.u.z.O.O.@.3.| i N.Y.F n p.R.X - ) 3.,...@.z.z.b.u.n.z.3.z.J.H.x.3.3.z.z.z.z.n.n. .3.3. .~ ",
"@...1.3.@.@.@.u.z.@.@.u.@.@.@.[ @.O.@.u.u.z.@.@.3.,.Q 5 =.}.~.> + - 6 8 1 e } y.H.Q.D.z.z.@.z.p.b.b.u.3.@.1.3.z.@.z.u.@.z.@.+.@.",
"1.@.3.1.@.4.3.@.3.u.e.@.@.@.@.@.@.+.+.@.z.p.u.@.+.@.[ # # R h.* O 2 : 6.8.9.0 9 7 f } [ 3.3.z.H.H.H.D.z.3.3.4.z.3.3.z.4.3.1.3...",
"x.z.z.x.z.z.D.p.b.V.r.w.p.p.y.O.@.p.u.z.z.z.b.z.z.x.r o O   . @ $ % 1 h r f d 8.9.9.0 9 6 e X.b.D.D.D.J.D.n.D.z.z.3.4.z.l.z.3.x.",
"| O.O.@.| | O.@.O.X.X._ / L L ( [ X.X.[ [ [ X.E Y N . o O % 3 , @ 3 ; h N L ( h e f d 8.9.8.k e [ | | | | O.O.| E ~ | | ~ ~ | X.",
"O.O.w.O.p.+.y.e.r.e.w.w.e.O.O.e.y.y.y.y.r.w.w.q./ 4 > # o @ @ @ % , y G b A O.O.O.q.O.C g g g L O.e.+.+.e.O.O.O.O.e.u.O.O.O.O.O.",
"3.z.3.3.z.3.3.u.....@.k.u.+.+...@.@.3.3.3.3.@.u.T n ^.>.> . & = & q #.=.w | k.z.k.k.k.k.z.k.3.z.k.l.z.z.z.3.3.( L u.l.l.k.l.3.3.",
"3.3.3.l.l.3.3.3.l.z.z.l.z.l.z.l.z.z.l.x.z.4.l.l.l.N R L.v.u 3.3.X.p 5 g } z.x.n.b.C.C.n.D.n.n.S.D.n.S.n.z.3.+.L L y.3...,.k.3.3.",
"z.3.l.n.z.x.n.n.N.N.n.n.n.n.z.n.M.x.x.x.M.S.n.x.z.4.L c c ) k.3.x.k.e.C.C.z.b.b.b.n.b.b.b.n.n.D.n.n.n.+...l.n.k.z.O.3.n.l.,.....",
"z.k.l.x.l.x.N.D.,.k.D.D.b.n.b.S.D.M.n.S.D.n.l.z.3.3.3.3.3.3.@.E y.p.| u.z.z.z.n.b.b.b.c.u.k.z.n.n.n.z.~ +.z.b.y.u.l.x.n.z.k.u.k.",
"u.u.k.k.z.3.3.+.X.k.c.l.l.z.3.3.3.z.z.l.z.l.z.3.3...1.3.3.3.@.M L @.+.@.O.u.z.z.z.z.n.z.z.z.z.l.z.z.z.x.z.@.z...z.z.n.z.k.k.z.u.",
"l.k.x.z.x.4.4.M.n.c.n.z.z.3.3.3.3.3.3.3.l.l.3.4.3.@...1.3.4.3.y.@.+.+.O...3.l.3.l.x.k.k.k.3.3.3.4.3.3.4.4.l.3.,.-.l.l.x.l.n.z.z.",
" .......,.-.....+.+.+.+.o.....O.| O...X.o.+.+.+...X.^  ... .X.} [ ~ ~ ~ |  . .X......... .X... ... .~  . . . .| X...O.+.X.......",
"o.+.+.k.n.l...-...:.+.e.k.k.e.w.|  .e.+.e.e.e.O.e.+.e.e. . ...| ~ ..| [ ~ .. .+... . . .| o. .Q |  ...O.+.| o. .| +.e.,.+.,.+.O.",
"3.4.4.4.2.2.4.4.4.4.4.4.<.,.3.,.,.+...,.,.+.-.....+.....-.1.1.;.,.-.y.u...;.3.;.-.-...,.4.4.;.<.4.4.l.4.4.l.l.l.4.l.4.4.l.3.4.l.",
"4.4.4.2.2.2.4.<.4.4.<.3.-.,.,.;.-.-.-.....3.....,.,...3.3.3.3.3.+.+.y.z.......l.4.,.,.3.l.l.l.3.z.n.n.x.l.4.k.l.k.4.4.4.<.4.4.<.",
"4.m.4.<.<.4.;.;.<.-.-.,.:.<.k.3...z.3.k.,.+.3.@.k.3.^ Q  ... .E P } k.c.l.,.3...b.k.k.z.v.z.z.x.x.n.n.4.,.l.l.x.l.4.,.3.k.4.,.4.",
"n.,.n.J.N.M.4.^ $.*.:.o.o.d.n.l.,.z.k.k...z.v.l.k.k.3.,.k.k.@.| [ ..k.k.k.k.l.k.n.x.k.k.k.l.z.l.x.n.n.n.x.x.z.n.C.+.c.V.n.c.d.+.",
"t.] x.N.M.M.x.l.v.v.n.b.n.n.n.v.x.x.k.g.k.l.n.n.k.c.k.l.c.k.l.@.3.3.z.k.k.z.z.n.n.x.z.z.k.l.3.3.k.l.k.k.c.v.v.c.v.d.k.n.z.C.n.c.",
"C.} k.N.M.n.n.N.v.m.n.n.x.v.x.l.k.c.c.k.l.l.v.k.n.n.n.n.n.k.k.k.c.n.n.n.n.S.S.n.D.n.n.n.n.b.b.n.n.z.c.c.c.n.k.b.b.n.n.n.n.M.n.V.",
"k.e.e.| .. .| O.+.X.| | O.o.| O.X.X.X.X.| ~ | | O.o.X.X.O.O.| X.O.O.+.O.+.y.| [ | y.O.e.y.O.+.o.|  .| +.o.+...+.+.,.,.+.,.o.e.e.",
"2.3.<.%.%.-.;.*.2.3.*.$.*.*.-. . .:.;.-.-. . .~ '  .........^  . ...-.......-... .o. ...3...,... .-.-.:.;.l.2.-.;.4.4.;.%.4.4.4.",
"4.>.$.*.%.*.:.>.,.^ *.:.<.*.*.*.*.*.*.$...^  .( Z | -.-.1.1.1.-.-.-.4.4.2.1.3.;.-.-...^ -.-.-.-.-.-.-.-.-.-.4.<.l.4.4.4.2.2.4.4.",
"d.l.d.+.d.d.d.d.,.+.d.d.d.f.l.<.d.<.f.<.o.e.O.o.o.d.k.,.,.3.3.3.4.4.,.4.4.l.k.X.+...,.k.:...-.:.:.k.d.+.d.+.:.k.k.,.:.&.<.f.x.l.",
"B.t.Z.] b.o.d.] o.v.n.o.:.d. .k.J.C.q.Q z. .,.v.x.o.o.C.k.d.n.k.3.n.n.v.l.n.b.b.C.x.n.n.n.z.k.n.z.b.p.t.n.v.d.k.v.k.c.] g.K.b.| ",
"c.t.t.t.V.X.c.q.] :.o.o.o.d.S.n.M.v.C.g.d.k.d.f.d.k.n.v. .d.C.l.,.n.L.H.k.z.D.C.v.x.+.n.+.k.D.C.c.o.k.t.V.b.k.c.c.k.z.c.g.,.b.c.",
"p.k.p.b.C.C.v.n.h.d.d.h.d.f.v.h.v.v.h.v.d.d.l.l.x.m.f.<.k.v.:.3.l.z.4.4.l.k.x.v.k.z...n... .n.C.+...+.O.A.c.| c.v.n.n.l.k.k.d.e.",
"n.b.n.b.n.v.v.n.c.l.v.v.n.v.v.v.v.M.v.v.v.m.x.M.n.n.n.M.x.x.l.4.4.l.4.4.x.S.k.n.x.n.n.N.x.x.l.z.n.n.n.n.c.x.n.n.x.x.n.n.M.n.C.x.",
"X.[ ] X.] ] o.q.+.,.:.q.e.+.d.d.+.+. .o. . . ...~ -.,.:.-...~ @...~ W Q O.| | | | X.+.O.| | E ~ ) ) X.| | ~  .o. .Q W  ...o.X.o."
};
