/* XPM */
static char *player[] = {
/* columns rows colors chars-per-pixel */
"32 32 178 2",
"   c black",
".  c #00001A",
"X  c #030B25",
"o  c #0C122B",
"O  c #12172D",
"+  c #14182E",
"@  c #19192E",
"#  c #161A30",
"$  c #1B1D33",
"%  c #1F2033",
"&  c #1D2139",
"*  c #201D32",
"=  c #242235",
"-  c #22253E",
";  c #2B2335",
":  c #2E2739",
">  c #2E2B3B",
",  c #312D3D",
"<  c #39323F",
"1  c #222740",
"2  c #252A42",
"3  c #292841",
"4  c #292E49",
"5  c #2D324E",
"6  c #35364F",
"7  c #393340",
"8  c #38394C",
"9  c #303451",
"0  c #353957",
"q  c #363B59",
"w  c #3A3F5E",
"e  c #3D405D",
"r  c #336479",
"t  c #386478",
"y  c #422E3C",
"u  c #492E3D",
"i  c #4B323F",
"p  c #50313F",
"a  c #58333F",
"s  c #4C3341",
"d  c #483E48",
"f  c #533541",
"g  c #5D3644",
"h  c #5D3D45",
"j  c #633945",
"k  c #6A3D49",
"l  c #4E434B",
"z  c #464155",
"x  c #4A4153",
"c  c #53434B",
"v  c #524655",
"b  c #574A57",
"n  c #564C5C",
"m  c #5A4B50",
"M  c #5B4E5C",
"N  c #434561",
"B  c #4A4963",
"V  c #475B76",
"C  c #534F66",
"Z  c #66444D",
"A  c #694249",
"S  c #654D58",
"D  c #684750",
"F  c #645255",
"G  c #65545B",
"H  c #6B5154",
"J  c #6F5A5A",
"K  c #77424F",
"L  c #75484D",
"P  c #7B484D",
"I  c #714350",
"U  c #75555B",
"Y  c #735D5C",
"T  c #79515C",
"R  c #62596B",
"E  c #6B5F6D",
"W  c #715462",
"Q  c #735C68",
"!  c #7B5463",
"~  c #7C5C65",
"^  c #76605F",
"/  c #606776",
"(  c #686876",
")  c #7C6362",
"_  c #7C626E",
"`  c #756772",
"'  c #776873",
"]  c #7F6A73",
"[  c #4D6580",
"{  c #517B94",
"}  c #518199",
"|  c #55A3B7",
" . c #55A7BA",
".. c #844752",
"X. c #844952",
"o. c #8D4B55",
"O. c #875052",
"+. c #915454",
"@. c #9D565B",
"#. c #846569",
"$. c #856A66",
"%. c #836A6B",
"&. c #8D7069",
"*. c #8D777A",
"=. c #8E787B",
"-. c #92736C",
";. c #9C786E",
":. c #967773",
">. c #957C7D",
",. c #A05A5A",
"<. c #A76967",
"1. c #AE6E6C",
"2. c #A47079",
"3. c #A97F73",
"4. c #B56760",
"5. c #BC6B63",
"6. c #BD756D",
"7. c #BD7D70",
"8. c #C06D64",
"9. c #C4756B",
"0. c #CB7B6E",
"q. c #8D7A88",
"w. c #A87A83",
"e. c #A58075",
"r. c #B38376",
"t. c #B48C7C",
"y. c #CC8475",
"u. c #CD8B7A",
"i. c #D18374",
"p. c #D28F7D",
"a. c #D1927F",
"s. c #948795",
"d. c #9D99A4",
"f. c #A18381",
"g. c #AD8088",
"h. c #AD9C9C",
"j. c #B08A93",
"k. c #BC9382",
"l. c #A09FAB",
"z. c #ABA0A3",
"x. c #B2C7D3",
"c. c #B5CFDB",
"v. c #C1998B",
"b. c #C89B86",
"n. c #CC9E8B",
"m. c #DD9682",
"M. c #DA9984",
"N. c #CEA290",
"B. c #D4A38C",
"V. c #D4A592",
"C. c #DBA691",
"Z. c #DBA991",
"A. c #E19984",
"S. c #E8A38B",
"D. c #E0AE96",
"F. c #EEAC92",
"G. c #E5B097",
"H. c #E5B198",
"J. c #E9B196",
"K. c #EDB599",
"L. c #EFB99B",
"P. c #F2B296",
"I. c #F0B79A",
"U. c #F3BA9C",
"Y. c #F8B799",
"T. c #FCBE9E",
"R. c #FEC2A1",
"E. c #C7C5CE",
"W. c #D3C2C7",
"Q. c #D9CBD1",
"!. c #D1D1DA",
"~. c #DBD7DF",
"^. c #DAD8E0",
"/. c #DFE2EA",
"(. c #E6D3CF",
"). c #EAD0C6",
"_. c #E0E1E8",
"`. c None",
/* pixels */
"`.`.`.`.`.`.`.`.`.`.`.`.`.`.`.`.`.`.`.`.`.`.`.`.`.`.`.`.`.`.`.`.",
"`.`.`.`.`.`.`.`.`.+ # O O O O # + O O O + # `.`.`.`.`.`.`.`.`.`.",
"`.`.`.`.`.`.`.`.+ # $ & $ $ & $ $ $ $ & $ $ `.`.`.`.`.`.`.`.`.`.",
"`.`.`.`.`.`.`.`.+ + 5 0 q q 0 0 q 0 q q 9 $ o `.`.`.`.`.`.`.`.`.",
"`.`.`.`.`.`.+ O & 1 0 w w w w w w w w w q 2 1 # O `.`.`.`.`.`.`.",
"`.`.`.`.`.`.+ + 4 q e e w w w w w w w w w w 5 # O `.`.`.`.`.`.`.",
"`.`.`.`.`.`.O + 5 e w w w w w w w w w w w w 5 # O `.`.`.`.`.`.`.",
"`.`.`.`.`.`.+ O 5 w w w w w w w w w w w w w 5 # O `.`.`.`.`.`.`.",
"`.`.`.`.`.`.+ O 4 N >.f.B e e w w w w >.f.B 5 # O `.`.`.`.`.`.`.",
"`.`.`.`.`.`.O + 4 N N.G.R N N N N B B V.G.C 5 # O `.`.`.`.`.`.`.",
"`.`.`.`.`.`.O + 4 N N.T.Z.V.V.V.V.V.V.T.Z.C 5 # O `.`.`.`.`.`.`.",
"`.`.`.`.# . > , 9 N k.H.J.I.R.R.R.U.H.G.n.C 9 , 7 7 X `.`.`.`.`.",
"`.`.`.`.# O Y B.%.w z x x %.U.R.R.:.x x x e ( B.-.$ O `.`.`.`.`.",
"`.`.`.`.$ O ^ R.q.w n n 3 G I.R.R._ - v M e ' U.3.$ O `.`.`.`.`.",
"`.`.`.`.# O ^ R.*.z k.N., m I.R.R.^ @ k.V.B ` R.;.$ O `.`.`.`.`.",
"`.`.`.`.# o Y e.#.W Z.Z., c M.S.S.H @ b.H.~ ~ e.$.% O `.`.`.`.`.",
"`.`.`.`.`.`.$ % L 5.F.C., u 4.8.8.h + b.Y.9.O.= = `.`.`.`.`.`.`.",
"`.`.`.`.`.`.O O y A 7.p.;.3.M.A.A.r.-.u.y.L i + O `.`.`.`.`.`.`.",
"`.`.`.`.+ `.$ @ $ = +.9.P.R.T.T.R.R.T.0.,.: # # % `.O `.`.`.`.`.",
"`.`.`.`.+ O F t.h.l.~ P <.6.i.i.i.7.1.P P l.l.k.&.@ O `.`.`.`.`.",
"`.`.+ o % $ ) T.).!.Q f ..,.5.5.5.,.o.g S E.(.R.e.= = + + `.`.`.",
"`.`.O O c b.a.0.U 8 s g ..2.W.Q.Q.w.o.j s 8 S 9.u.B.J O + `.`.`.",
"`.`.O o m I.S.0.j + u j ..w.^._._.j.o.k f @ i 9.m.R.Y O + `.`.`.",
"`.`.+ O m I.R.T.Y # k o.o.w.~._._.j.o.o.K * m J.T.R.Y O O `.`.`.",
"`.`.# O l t.k.k.m @ f K T q.x.c.c.s.! I j $ d t.t.b.F + # `.`.`.",
"`.`.# # % % % % @ + $ - V { |  . .} [ 2 + + + % = $ = # # `.`.`.",
"`.`.`.`.+ O O O + @ i Z _ ( r r r / %.D a $ O O O O O `.`.`.`.`.",
"`.`.`.`.`.`.`.`.+ @ +.5.5.O.$ + + L 4.5.@.; O `.`.`.`.`.`.`.`.`.",
"`.`.`.`.`.`.`.`.+ $ f f f s = O + i f f s : o `.`.`.`.`.`.`.`.`.",
"`.`.`.`.`.`.`.`.`.# O O O O `.`.`.O O O O # `.`.`.`.`.`.`.`.`.`.",
"`.`.`.`.`.`.`.`.`.# + + O O `.`.`.+ O O + + `.`.`.`.`.`.`.`.`.`.",
"`.`.`.`.`.`.`.`.`.`.`.`.`.`.`.`.`.`.`.`.`.`.`.`.`.`.`.`.`.`.`.`."
};
