/* XPM */
static char *a4cd5dd73fe54202d531f14941a2d374NJhWoDbhnHSLiq9r[] = {
/* columns rows colors chars-per-pixel */
"64 64 172 2 ",
"   c #8B725C",
".  c #AA7F5D",
"X  c #9C7D66",
"o  c #A67F62",
"O  c #A87F61",
"+  c #AB825E",
"@  c #9D836C",
"#  c #968371",
"$  c #9C8374",
"%  c #A58165",
"&  c #AC8463",
"*  c #A3846B",
"=  c #AD8C6D",
"-  c #B28A65",
";  c #B88E65",
":  c #B38D6C",
">  c #B98F6B",
",  c #B6916E",
"<  c #BC936E",
"1  c #A48671",
"2  c #A58A73",
"3  c #AC8D74",
"4  c #A78E7A",
"5  c #AB8F79",
"6  c #B28F73",
"7  c #B98E74",
"8  c #B08F7A",
"9  c #AE9176",
"0  c #A7907D",
"q  c #AE927B",
"w  c #B49274",
"e  c #BB9574",
"r  c #BD9976",
"t  c #B4957A",
"y  c #BA967A",
"u  c #B6997C",
"i  c #BC9A7C",
"p  c #BFA17E",
"a  c #C2956E",
"s  c #C6996C",
"d  c #C29673",
"f  c #C39B75",
"g  c #C99D75",
"h  c #C0977A",
"j  c #C39D7C",
"k  c #C99E7C",
"l  c #C7A077",
"z  c #CBA077",
"x  c #C5A17E",
"c  c #CAA27C",
"v  c #AE9480",
"b  c #AC9884",
"n  c #B59781",
"m  c #B59A83",
"M  c #BC9D82",
"N  c #B69E88",
"B  c #BB9E8A",
"V  c #B7A087",
"C  c #BEA184",
"Z  c #B6A18E",
"A  c #BDA28C",
"S  c #BCA492",
"D  c #BDAB9D",
"F  c #C29E82",
"G  c #C99F81",
"H  c #C19F88",
"J  c #C5A284",
"K  c #CCA280",
"L  c #CCA080",
"P  c #C9A483",
"I  c #CFA582",
"U  c #C8A285",
"Y  c #C9A387",
"T  c #C9A484",
"R  c #C9A485",
"E  c #CBA584",
"W  c #CAA585",
"Q  c #CBA685",
"!  c #C9A487",
"~  c #CAA486",
"^  c #C9A687",
"/  c #CDA785",
"(  c #C9A484",
")  c #C4A887",
"_  c #CCA887",
"`  c #CEA886",
"'  c #CBA986",
"]  c #C0A089",
"[  c #C3A388",
"{  c #C0A28A",
"}  c #C3A489",
"|  c #C7A488",
" . c #C7A789",
".. c #C6A48B",
"X. c #C4A68B",
"o. c #C7A78B",
"O. c #C5A28C",
"+. c #C3A68F",
"@. c #C5A58C",
"#. c #C6A68F",
"$. c #C4A58A",
"%. c #C8A388",
"&. c #CAA489",
"*. c #C9A689",
"=. c #C9A789",
"-. c #CAA688",
";. c #CAA58A",
":. c #C8A78B",
">. c #CAA78A",
",. c #CCA689",
"<. c #C8A78D",
"1. c #CAA78D",
"2. c #C9A68A",
"3. c #C6A98D",
"4. c #C9A88B",
"5. c #CBA98A",
"6. c #CBA98B",
"7. c #CAA88A",
"8. c #CAAA8A",
"9. c #CFAA88",
"0. c #CCA88A",
"q. c #CCAB8A",
"w. c #C9A98D",
"e. c #CBAB8C",
"r. c #CAAA8C",
"t. c #CBA98E",
"y. c #CAA98F",
"u. c #CAA88F",
"i. c #C9AA8F",
"p. c #CDAB8C",
"a. c #CDAA8F",
"s. c #CFAA8E",
"d. c #CBAA8C",
"f. c #D0A786",
"g. c #D1AC8D",
"h. c #D1AC8B",
"j. c #D4B18F",
"k. c #C2A792",
"l. c #C3A691",
"z. c #C3A891",
"x. c #C5A990",
"c. c #C6AB91",
"v. c #C5A893",
"b. c #C5AA93",
"n. c #C9A891",
"m. c #C8AB90",
"M. c #C9AA92",
"N. c #CCAA90",
"B. c #CDAB91",
"V. c #CCAD91",
"C. c #CDAF91",
"Z. c #C9AD94",
"A. c #CAAC94",
"S. c #CBAC95",
"D. c #CAAC93",
"F. c #C6AC99",
"G. c #C9AE99",
"H. c #D1AF90",
"J. c #D0AE94",
"K. c #CDB195",
"L. c #C6B09F",
"P. c #CCB199",
"I. c #CCB29A",
"U. c #CFB99E",
"Y. c #D3B392",
"T. c #D1B499",
"R. c #D3B49A",
"E. c #D1B89B",
"W. c #CFBBA3",
"Q. c #D2B9A4",
"!. c #D3C0A7",
"~. c #D4C2A8",
/* pixels */
"u u u m y e e e i i u y y u y y u M F j F j r y u F F F M m m n n m n n n n w 9 2 9 = 3 3 w u t e w u u t t w t t t t u u y u y ",
"j j j j J j J j Y J J F J Y F j F j f d e < a a i y J F h h F F T T Y J j d < r J M Y Y J J J x J P J F F j e f j j j f f f f f ",
"j P P j J J ! Y Y Y :.:.%.Y J Y Y j h h r r h d u * H Y F h j J $.y.y.:.! Y P f y [ :.4.f._ ! ! ! / E P J x x c P j j j x J x j ",
"H [ H i J J :.N.N.N.s.s.9.! P ! :.$.J $.O.N.N.<.@.2 y T H T 4.H.4.y.D.D.R.I.Z.<.[ } y.Y P ! P ! Y J P j x x x P c j j J T 9.4.T ",
"n.N.N.$.m 5 2 B l.x.@.x.x.Z.Z.y.i e e M [ +.z.A A n M y.@.y.s.4.! x T J J F Y :.$.M F T s.g._ J F j E / J ! P ! ,.:.! j x :.:.<.",
":.y.x.+.q 2 o d f r j J J P P x j ! 4.Y J @.@.w.J J y.9.s.9./ / c k :.y.M f j j F y :.s./ c / ! x / E / F Y x J Y ! J j x P J J ",
":.$.$.$.u * < J $.r f 9.h.h.h.c f j P J F O.Y Y F F Y Y P / f./ c ,.y.:.T j x P F u 9.,.P c / P P c k y j 9.g.h.f.h.j.9.s.s.Y Y ",
"H H Y i e = w l.O.i i j j j j f f f f h h j h i i f j f j f k f f f f r e > e i i i i i i h i i h f e u j P ! ! J J ! ! :.$.O.H ",
"% % % * * 3 1 1 2 5 t y y w 6 6 6 6 w 6 6 w w 6 3 = 6 w : : e e w w 3 3 = 3 w w w : & + & - = . + & & & & & & & % O O o % % * * ",
"[ +.+.$.+.@.@.[ @.@.w.:.O.$.Y J Y Y Y J J Y Y Y ! Y T ! _ _ ,.! ! ! J t w x J J F j f f f c j j j j j k j f j x j j J M M [ +.[ ",
"C C J [ [ +.@.$.} [ $.O.$.:.$.Y O.Y J x j j f j J F J J x j F F F h i = 6 h j j F j F J J F J $.:.Y O.:.O.$.@.N.w.@.@.x.G.b.v.A ",
"[ +.r f r w t M C M J F f f j F Y N.y.N.N.D.w.@.:.$.$.@.$.w.y.<.$.M M [ @.+.+.w.D.c.w.@.$.$.J j $.J k k j f h j j j j j j j J F ",
"$.A u g a w M M J J T F F F J Y T y.N.+.N.Z.M.<.Y j j f j F F Y y.$.$.w.D.@.x.F.F.Z.x.} $.Y y.y.w.! s.D.I.x.v.M.x.x.+.+.z.+.[ [ ",
"@.+.A C $.J :.@.N.N.D.S.T.Z.S.D.D.s.$.$.y.D.S.N.+.M.x.} $.N.x.w.$.$.) J T o.w.N.@.$.Y $.N.x.y.D.w.x.c.x.$.M M M J [ [ } +.@.[ @.",
"O.+.A A Z.D.y.$.:.<.<.4.:.:.Y Y :.Y J Y Y Y Y Y Y T Y Y Y Y J j j J j j F J Y T Y Y J J $.Y :.! Y Y Y T Y F F Y Y Y J J T :.<.y.",
"F M M C n.@.O.$.$.:.:.:.<.y.$.! :.! Y Y Y Y %.Y $.Y Y Y T $.:.! Y Y Y Y Y P ! Y Y Y F J $.:.F J J F J T J u i M F M M H J Y H F ",
"u M n M n t t u u u u t t w e t t t t t 6 3 3 3 3 w w w 3 3 6 w 9 w t w w w w 6 w w w w w w 3 3 6 6 3 w w 3 3 w w q q w t w u t ",
"[ [ J $.$.$.$.$.$.$.:.:.:.! :.:.:.:.! ! Y J J Y J Y Y j x j j F J $.$.J T J Y ! Y J Y J Y P J j P P P c j j J Y $.J $.Y J J [ [ ",
"C A m M J J C C J J Y J M J Y J J T Y J Y J J T J Y T T T J P F J $.$.J F J T $.$.[ [ $.@.$.$.:.:.y.y.s.T J Y J J M M F M M M H ",
"B A A n M.M.n.x.z.z.F.b.l.M.N.y.@.y.$.Y J [ O.O.[ $.$.O.Y Y Y Y J Y +.+.@.+.+.@.[ M J [ O.M C [ [ $.[ l.x.F.F.G.k.A B S Z B B M ",
"J ! Y M S.J.N.@.w.w.Z.N.@.D.K.Z.D.Z.Z.Z.c.z.b.b.Z.Z.G.G.v.z.Z.F.b.b.l.A S v.F.I.b.b.G.G.G.b.G.G.Z.P.b.b.Z.P.P.Z.n.+.l.A n.@.J H ",
"k P O.Y :.9.! P P P P P P P ! T J Y T T Y C J [ y.y.w.x.z.b.G.b.x.x.[ C v S F.F.F.G.G.G.b.x.Z.N.N.D.@.$.:.:.y.$.O.T Y J P J J J ",
"$.x.@.%.Y P P P P P P P j j J Y F J Y J F F j J Y Y J J J O.J J } $.T [ M @.$.+.[ x.N.@.:.:./ / 9.s.9.:.! :.4.:.$.:.:.O.T ! 9.9.",
"A A M H F j j i i i M F i i i u i i M M i i y i M u u i i M u u i i M m t u u u u u M F F Y F F Y F F F F F F J M M M M M J J M ",
"4 0 4 5 t 3 3 5 q q q 5 1 1 2 2 5 0 4 2 2 3 2 2 4 4 5 q 3 9 q q q q t t t 9 5 3 3 3 3 q q 5 5 3 3 3 3 5 5 * * q t q 1 8 3 0 0 4 ",
"D S v.L.F.x.x.+.x.I.N.y t B B B A A [ M M J [ H M M F F J Y F F @.b.x.@.$.O.J J O.O.$.:.:.:.$.O.$.@.x.x.C 5 $ n H 3 M I.@.S F.D ",
"S A x.P.b.x.x.b.P.I.C t O.b.G.Q.Q.+.[ P.I.Z.$.F i y.H.F :.j > e M.@.F y.@.w.@.<.Y J J i F Y O.$.$.$.@.C u J +.A [ y @.Z.O.O.O.A ",
"u M Y i u y u M F j F $.J J H @.<.<.O.O.[ O.H F F i Y F j f 7 M @.M M y.F.Z.P.K.i Z.F M S.F N.M N.M w.J y N.K.@.O.I.<.H $.$.J J ",
"M M i J O.[ O.H F F H J J Y Y :.$.$.Y F F F F F J j f j f j Y Y F F J F F F F F F J J J j j F F Y Y F F Y :.$.y.N.J F F i r j F ",
"j j j Y N.:.! ! ! ! :.! ! :.:.$.$.O.Y Y Y Y H F Y F x P k j J F F j J F F Y J F F F j j j j G k k P j j P Y Y $.<.:.%.Y F j j j ",
"j j j ! s.s.9.! P j q j ! ! ! T $.$.Y Y T ! :.y.9.! / f.E _ _ / P P Y Y Y :.! ! Y P E G P P E P G G c j j k J O.O.Y Y Y F j j P ",
"e e e w e y y e w w : e e w w w w w w 6 , , w w e e e e w e e e e e e e e e e r r r d r e e r d r d r e e e e t i y e e e r e e ",
"r r r i r e r y e w , w w e t u u i M u u y e e r e e e e e r r e i i y u i i i j j r r r r r r r r r e j i e e y i r f r y e r ",
"f j j c P j j j j j r r f r j j j j j J J T J ! P J P P q.4.J x x f j x j x c c / / c c c P c c c c c g z c ' y.J x c c c x f f ",
"d d d j x < < e r r e r e i i r J r r J C C ) j j x x x J x y * i Y J J x j f f f x x ! J T J x ' K.c j f x ) Z.i.P J J j r f e ",
"< e < , ; ; e r r r J J i C C w y y y ) ) y r j x j x > w i y q M w.C J x j r x J o.4.p w.T j ) I.E.' x x J J +.) D.y.e J x e w ",
"r j x x x r r ) C r J J C i i u i u i C ) +.i p x j r > r J i +.M } M T r o.i.Z.U.~.K.w.$.x J +.o.o.J x j x J J x J J J J x i r ",
"j j x x j x J J J J M M i i p p p i i i J ) C r r x i x i r r C C C C i C X.w.K.!.W.w.J J x ) U.U.I.c.w.J J J J J x J J x x j f ",
":.4.' ' T 4.y.i.D.c.N m A +.M u M } } ) X.w.x.T T 4.T $.4.4.T C C C u 3 q m V 3.A v.I.D.D.y.4.K.K.K.C.K.D.K.D.4.J J x J J J J ! ",
"e u u t e t u u t t q 0 1 @ @ 2 9 t 9 9 9 9 w = = = = = w w w 9 q t 9 * @ @ 1 2 3 V u w w w w w w w e e w t e w 3 : w w e w e e ",
"u u M M C M M M m m m m m m u M V V V m m m n m n m m n m M m 5 b N m u u u u i m m u m m m m M u m M u M M M t t M C u u u u t ",
"J x x J ! J J j i i x J x i r i x x x J J j j x j F J J J J J J C ) Y T T J J J J J T Y J J J T T J ! ! J x j 2 @ J Y J J J x x ",
"x x J J J x x x J J J J T T T J ' ' P P ! J P P P J P P J j x x x J o.D.o.T :.4.y.i.i.p.p.i.y.p.K.q.p.q.! J r * @ M j f j x J J ",
"J J J q.4.T 9.p.Y.Y.p.y.y.4.y.4.q.9.9.4.p.p.9.4.! ! P c j x J J ' ) M i.i.o.w.i.w.w.o.y.y.y.D.D.p.4.i.u i P 4.$.) i x q.J f r j ",
") J J T ! ' Y.H.x ! K.K.y.y.i.p.K.D.p.D.K.s.! T J x x j x J J = M A w J $.@.o.y.w.o.$.) J ) y.i.i.K.T w r T c.M C T 4.i.T T J J ",
"J J Y T J x x u w J T J J J J J J T J ! ' ! J x x j j x x x r   $ m i i t C ) J $.o.y.o.} $.J J J J P _ J J J M J T 4.T J $.$.) ",
"! Y ! ! P P I 4.y.$.:.4.J J x x x x x P P P J x j j f f x x J m u u i y i j J J J P ! J J J x c c x x J J x x j x J ' :.J ! T T ",
"r r i i f f r i i i i u y y y y e e e y y u i y y e e e e e e q w w , , w e e r r r i i e e e e e e e e e e e y y e y y r i y r ",
"y u i j :.P f f f i i M J J C u w t M M M M M u u M M M e e i e , y t : : r e i i e e e y y e : e e e u u w t y w i i j i i i i ",
"x c c c c z c c c c c c c j j j j f f j j j j r r f r f f f f j j j C F f j x g f d f j x c g k j c c c P P P ! J P c P c x c c ",
"k c c k c c c k c c k c j j j j j f f r r j r r j j r j x x x x i i V } r e j P x j j P P P P x J :.q.9./ c c P c c c j j c k k ",
"c / c k k c k f j f f j f f J x r J x J f j J i J x < : e r e = # q } $.J j j i o.T J ) T ! 4.4.4.i.4.x j P :.:.P x j x J c x c ",
"@.j 9.Y.j.9.c < < d h r r F 4.! j :.J J j J ! J J J F j J J j e 3 r J Y Y J T $.y.4.Y Y J J J ' _ 4.s.p.9.4.$.p.D.i $.y.y.T F h ",
"B 7 _ g.g.g._ Q / 9.y.y.y.s.s.! ! ! Y M J ! 4.4.T T T T T T J j x x J T Y Y 4.4.4.4.$.T T J x x J ! Y Y Y ! T $.T J Y y.4.y.y.[ ",
"c.t J g.p.s.4.q.9._ 4.4.s.:.:.J T T $.Y P ! ! :.4.4.4.y.4.$.Y J $.y.p.D.p.p.p.i.D.p.p.i.y.y.4.i.y.:.$.J $.$.$.w.w.y.y.y.p.p.y.N.",
"J M M e e e e y i t w w t y t y t t u t w w w w u u t t u u w w t u i u u M e w t M u m M u M u e w e u y i r i i j j r i y M M ",
"x x c s f g f f c j e < d d d f r f j f f < e w : r r r r r e e e r r e r r r e e y e i j i j r e f d j j P c f g c c g g c c c ",
"c k d f d f d f f e d f j f d d d d d d e e e 3 X w f f f g f f f f c c z l c f d a d d d f f f f f f f f f j c c c / c c c k f ",
"F Y F i h F j F h h H Y Y Y P j h j P j y i u y y F J j F j c x c j j P k J Y w M r x J h r f f f F F i F i f F Y h h e j F :.Y ",
"l.M F.6 <.y H 6 r $.:.y y F e J K.D.M : $.w i :.! r i D.H F y.Y x p.4.! P 4.y.w.i.' p.4.9.:.T :.4.w.A M @.s.J Y $.Y Y 7 Y R.+.w ",
"+.B C M N.t O.t y h i y i Y s.s.g.:.N.H J Y F F F Y <.9.e M N.P h D.R.R.T $.K.D.T 4.i :.i J D.D.$.y T M Z.x.Y $.$.$.$.$.H h @.+.",
"} ) +.@.N.S.y.y.Y h H O.F Y ~ Y ,.,.Y t.F J Y / ,./ G k Y Y j j ! P J J J T :.! J ! i 4.i r y.S.j e i u F.} w J :.4.:.Y T J Y F ",
"y.o.y.:.p.:.:.s.T ! :.<.s.:.t.:.:.s.:.,.! / 9.9.9.g.p.9.9._ P P / P c / _ p.$.! 4.9.q.g.q.' J ' 4.y.y.y.$.:.s.9._ 9.p.9.h.9.p.4.",
"u w w t w 3 u u i i r u M u F F y i e e e r e r w j j f r r w i r < - : r e t w w e u u e w = w 6 3 w e 6 w e e e : - w i r t t "
};
