/* XPM */
static char *_dddda35997348e88c3b12d23975d504terck8UEM9sixOlU[] = {
/* columns rows colors chars-per-pixel */
"21 27 10 1 ",
"  c None",
". c #211F30",
"X c #48475B",
"o c #D2612F",
"O c #F2BC7E",
"+ c #EA71BD",
"@ c #FBDFB1",
"# c #F89CC0",
"$ c #D8E1E4",
"% c white",
/* pixels */
"   ...         ...   ",
"  .$%%.       .$%%.  ",
" .$%%%%.     .$$%%%. ",
" .$%%%%........$$%%. ",
" .$%%%%%%%%%%%%%%%%. ",
".$%$$%%XXXXXXXXXX%%%.",
".$%$$%XOOOOOOOOOOX%%.",
".$%%%.OO@@@@@@oo@OX%.",
".$%$%.O@oooo@o%%o@X%.",
".$%%%.O@o%%o@o%%o@X%.",
".$%%%.O@o%%o@o%%o@X%.",
".$%%%.O@OooO@OooO@X%.",
".$%%%$.O@@@@@@@@@X$%.",
".$%%%%$..........$%%.",
" .#%%%%%%%%%%%%%%%#. ",
"  .###%%%%%%%%%%##.  ",
"   ..#++++++++++..   ",
"  .#####+++++++##..  ",
" .###+####+++####.+. ",
".O..+.#####+#####..O.",
".@@O.+###########.OO.",
" ...$$%$%%%%%%%$$... ",
"   .+############.   ",
"   .+##........##.   ",
"   .+#+.     .+#+.   ",
"   .++.      .++.    ",
"    ..        ..     "
};
