/* XPM */
static char *_37f9a7a6c654529c0d462f95daf7f8bUclK1Dk68h2hTmkn[] = {
/* columns rows colors chars-per-pixel */
"64 64 7 1 ",
"  c None",
". c black",
"X c #B40000",
"o c #C30000",
"O c red",
"+ c #FFA5A5",
"@ c #FFB4B4",
/* pixels */
"                                                                ",
"                                                                ",
"                                                                ",
"                                                                ",
"                                                                ",
"                                                                ",
"                                                                ",
"                                                                ",
"                                                                ",
"                                                                ",
"                                                                ",
"                                                                ",
"                                                                ",
"                                                                ",
"                                                                ",
"                                                                ",
"                                                                ",
"                                                                ",
"                                                                ",
"                          ....       ....                       ",
"                         .ooOO.     .OOOO.                      ",
"                        .oOOOOO.   .OOOOOO.                     ",
"                       .oOOOOOOO...OOOO@OOO.                    ",
"                       .oOOOOOOOOOOOOOOO+OO.                    ",
"                       .oOOOOOOOOOOOOOOOOOO.                    ",
"                       .oOOOOOOOOOOOOOOOOOO.                    ",
"                       .ooOOOOOOOOOOOOOOOOO.                    ",
"                        .ooOOOOOOOOOOOOOOO.                     ",
"                         .ooOOOOOOOOOOOOO.                      ",
"                          .ooOOOOOOOOOOO.                       ",
"                           .ooOOOOOOOOO.                        ",
"                            .ooOOOOOOO.                         ",
"                             .ooOOOOO.                          ",
"                              .XoOOO.                           ",
"                               .ooO.                            ",
"                                .o.                             ",
"                                 .                              ",
"                                                                ",
"                                                                ",
"                                                                ",
"                                                                ",
"                                                                ",
"                                                                ",
"                                                                ",
"                                                                ",
"                                                                ",
"                                                                ",
"                                                                ",
"                                                                ",
"                                                                ",
"                                                                ",
"                                                                ",
"                                                                ",
"                                                                ",
"                                                                ",
"                                                                ",
"                                                                ",
"                                                                ",
"                                                                ",
"                                                                ",
"                                                                ",
"                                                                ",
"                                                                ",
"                                                                "
};
