/* XPM */
static char *_c4627979f3941ae9f58683ccbddb0560HWragMciyyxT0hB[] = {
/* columns rows colors chars-per-pixel */
"16 16 15 1 ",
"  c #484848",
". c #4E4E4E",
"X c gray34",
"o c #5F645F",
"O c #626762",
"+ c #646964",
"@ c #6A6F6A",
"# c #6E736E",
"$ c gray50",
"% c #808080",
"& c #848484",
"* c #8B8B8B",
"= c gray56",
"- c #AEAF93",
"; c #B9BAA0",
/* pixels */
"&*@@******@@***O",
"&;XX#;;=;#X====.",
".#==XX###XX#=#X&",
"+XXX=XXXX#XXXX=&",
".#===X===#==###&",
".##=#====;===;X.",
"+XX##;=##X;##.=&",
"+#==##=XXXXXX;;&",
"+X#=XXXX====#X=&",
".=XX===#;;=##X#+",
"&==;===#X###XXX.",
"+#=X;==XXXXXX#=&",
".XX#####===#XX;&",
"&==##XX##==#=XX.",
"&=;#===####X==;+",
"$-% o%%%o   o%%$"
};
